<svg id="Layer_1" viewBox="0 0 32 32" xmlns="http://www.w3.org/2000/svg" data-name="Layer 1"><g fill="#414042"><path d="m29.5 3h-27a2.5 2.5 0 0 0 -2.5 2.5v10.5a2.5 2.5 0 0 0 2 2.45v1.05a.5.5 0 0 0 .5.5h27a.5.5 0 0 0 .5-.5v-1.05a2.5 2.5 0 0 0 2-2.45v-10.5a2.5 2.5 0 0 0 -2.5-2.5zm-.5 16h-26v-2h26zm2-3a1.5 1.5 0 0 1 -1 1.41v-.91a.5.5 0 0 0 -.5-.5h-27a.5.5 0 0 0 -.5.5v.91a1.5 1.5 0 0 1 -1-1.41v-10.5a1.5 1.5 0 0 1 1.5-1.5h27a1.5 1.5 0 0 1 1.5 1.5z"/><path d="m20 9.75a.5.5 0 0 0 .44-.9l-.78-.38.49-.28a.5.5 0 1 0 -.5-.87l-.49.28.06-.87a.5.5 0 1 0 -1-.06l-.1 1.53-1.62.93v-1.86l1.28-.85a.5.5 0 1 0 -.55-.83l-.72.48v-.57a.5.5 0 0 0 -1 0v.57l-.72-.48a.5.5 0 0 0 -.55.83l1.26.85v1.86l-1.62-.93-.1-1.53a.5.5 0 1 0 -1 .06l.06.87-.49-.28a.5.5 0 0 0 -.5.87l.49.28-.78.38a.5.5 0 1 0 .44.9l1.38-.68 1.62.93-1.62.93-1.38-.68a.5.5 0 0 0 -.44.9l.78.38-.49.28a.5.5 0 1 0 .5.87l.49-.28-.06.87a.5.5 0 0 0 .47.53.5.5 0 0 0 .5-.47l.1-1.53 1.62-.93v1.87l-1.28.85a.5.5 0 0 0 .55.83l.72-.48v.56a.5.5 0 0 0 1 0v-.57l.72.48a.5.5 0 1 0 .55-.83l-1.28-.85v-1.86l1.62.93.1 1.53a.5.5 0 0 0 .5.47.5.5 0 0 0 .47-.53l-.06-.87.49.28a.5.5 0 1 0 .5-.87l-.49-.28.78-.38a.5.5 0 1 0 -.44-.9l-1.38.68-1.54-.93 1.62-.93z"/><path d="m9.5 9h-7a.5.5 0 0 0 0 1h7a.5.5 0 0 0 0-1z"/><path d="m29.5 9h-7a.5.5 0 0 0 0 1h7a.5.5 0 0 0 0-1z"/><path d="m9.5 21.5a.5.5 0 0 0 -1 0 1.48 1.48 0 0 1 -.4 1 2.52 2.52 0 0 0 0 3.27 1.53 1.53 0 0 1 0 2.07 2.45 2.45 0 0 0 -.6 1.63.5.5 0 0 0 1 0 1.48 1.48 0 0 1 .4-1 2.52 2.52 0 0 0 0-3.27 1.53 1.53 0 0 1 0-2.07 2.45 2.45 0 0 0 .6-1.63z"/><path d="m12.5 21.5a.5.5 0 0 0 -1 0 1.48 1.48 0 0 1 -.4 1 2.52 2.52 0 0 0 0 3.27 1.53 1.53 0 0 1 0 2.07 2.45 2.45 0 0 0 -.6 1.63.5.5 0 0 0 1 0 1.48 1.48 0 0 1 .4-1 2.52 2.52 0 0 0 0-3.27 1.53 1.53 0 0 1 0-2.07 2.45 2.45 0 0 0 .6-1.63z"/><path d="m15.5 21.5a.5.5 0 0 0 -1 0 1.48 1.48 0 0 1 -.4 1 2.52 2.52 0 0 0 0 3.27 1.53 1.53 0 0 1 0 2.07 2.45 2.45 0 0 0 -.6 1.63.5.5 0 0 0 1 0 1.48 1.48 0 0 1 .4-1 2.52 2.52 0 0 0 0-3.27 1.53 1.53 0 0 1 0-2.07 2.45 2.45 0 0 0 .6-1.63z"/><path d="m18.5 21.5a.5.5 0 0 0 -1 0 1.48 1.48 0 0 1 -.4 1 2.52 2.52 0 0 0 0 3.27 1.53 1.53 0 0 1 0 2.07 2.45 2.45 0 0 0 -.6 1.63.5.5 0 0 0 1 0 1.48 1.48 0 0 1 .4-1 2.52 2.52 0 0 0 0-3.27 1.53 1.53 0 0 1 0-2.07 2.45 2.45 0 0 0 .6-1.63z"/><path d="m21.5 21.5a.5.5 0 0 0 -1 0 1.48 1.48 0 0 1 -.4 1 2.52 2.52 0 0 0 0 3.27 1.53 1.53 0 0 1 0 2.07 2.45 2.45 0 0 0 -.6 1.63.5.5 0 0 0 1 0 1.48 1.48 0 0 1 .4-1 2.52 2.52 0 0 0 0-3.27 1.53 1.53 0 0 1 0-2.07 2.45 2.45 0 0 0 .6-1.63z"/><path d="m24.5 21.5a.5.5 0 0 0 -1 0 1.48 1.48 0 0 1 -.4 1 2.52 2.52 0 0 0 0 3.27 1.53 1.53 0 0 1 0 2.07 2.45 2.45 0 0 0 -.6 1.63.5.5 0 0 0 1 0 1.48 1.48 0 0 1 .4-1 2.52 2.52 0 0 0 0-3.27 1.53 1.53 0 0 1 0-2.07 2.45 2.45 0 0 0 .6-1.63z"/><path d="m2.5 7.5a.5.5 0 0 0 .5-.5v-1h1a.5.5 0 0 0 0-1h-1.5a.5.5 0 0 0 -.5.5v1.5a.5.5 0 0 0 .5.5z"/><path d="m29.5 5h-1.5a.5.5 0 0 0 0 1h1v1a.5.5 0 0 0 1 0v-1.5a.5.5 0 0 0 -.5-.5z"/><path d="m24.5 12a1.5 1.5 0 1 0 1.5 1.5 1.5 1.5 0 0 0 -1.5-1.5zm0 2a.5.5 0 1 1 .5-.5.5.5 0 0 1 -.5.5z"/><path d="m28.5 12a1.5 1.5 0 1 0 1.5 1.5 1.5 1.5 0 0 0 -1.5-1.5zm0 2a.5.5 0 1 1 .5-.5.5.5 0 0 1 -.5.5z"/></g></svg>