<?xml version="1.0"?>
<svg xmlns="http://www.w3.org/2000/svg" width="512" height="512" viewBox="0 0 128 128"><g><path d="M121.25,102.5H119.5v-61h1.75a6.75,6.75,0,0,0,0-13.5h-2.7v-6.25A1.749,1.749,0,0,0,116.8,20h-4.613v-6.25a1.749,1.749,0,0,0-1.75-1.75H98.812a1.75,1.75,0,0,0-1.75,1.75V20H92.45a1.749,1.749,0,0,0-1.75,1.75V28H37.3v-6.25A1.749,1.749,0,0,0,35.55,20H30.937v-6.25A1.749,1.749,0,0,0,29.187,12H17.562a1.75,1.75,0,0,0-1.75,1.75V20H11.2a1.749,1.749,0,0,0-1.75,1.75V28H6.75a6.75,6.75,0,0,0,0,13.5H8.5v61H6.75a6.75,6.75,0,0,0,0,13.5h114.5a6.75,6.75,0,0,0,0-13.5Zm-20.688-87h8.125V20h-8.125Zm-6.362,8h20.85V28H94.2Zm-74.888-8h8.125V20H19.312Zm-6.362,8H33.8V28H12.95ZM3.5,34.752A3.254,3.254,0,0,1,6.75,31.5h114.5a3.25,3.25,0,0,1,0,6.5H6.75A3.254,3.254,0,0,1,3.5,34.752ZM12,41.5H116v61H12Zm109.25,71H6.75a3.25,3.25,0,0,1,0-6.5h114.5a3.25,3.25,0,0,1,0,6.5Z"/><path d="M75,66.337H65.8l.052-16.6a1.75,1.75,0,0,0-3.362-.688l-11.1,26.185A1.75,1.75,0,0,0,53,77.669h9.2l-.052,16.6a1.75,1.75,0,0,0,3.362.688l11.1-26.185A1.75,1.75,0,0,0,75,66.337ZM65.678,85.6l.03-9.671a1.751,1.751,0,0,0-1.75-1.756H55.643L62.322,58.41l-.03,9.671a1.751,1.751,0,0,0,1.75,1.756h8.315Z"/><path d="M31.2,53.478H27.477V49.761a1.75,1.75,0,0,0-3.5,0v3.717H20.258a1.75,1.75,0,0,0,0,3.5h3.719V60.7a1.75,1.75,0,0,0,3.5,0V56.978H31.2a1.75,1.75,0,0,0,0-3.5Z"/><path d="M107.742,53.478H96.805a1.75,1.75,0,0,0,0,3.5h10.937a1.75,1.75,0,0,0,0-3.5Z"/></g></svg>
