<svg id="Layer_1" height="512" viewBox="0 0 64 64" width="512" xmlns="http://www.w3.org/2000/svg"><path d="m43.079 29.552-11.535-4.804.961-12.492c.033-.423-.206-.821-.594-.992-.39-.17-.843-.078-1.133.231l-15.253 16.263c-.224.239-.317.573-.248.894.069.32.291.587.593.713l11.535 4.804-.961 12.492c-.033.423.206.821.594.992.457.184.939-.025 1.133-.231l15.254-16.262c.224-.239.317-.573.248-.894-.069-.32-.291-.587-.593-.713zm-14.423 14.428.799-10.379c.033-.431-.214-.834-.613-1l-10.871-4.527 12.322-13.137-.799 10.379c-.033.431.214.834.613 1l10.871 4.527z"/><path d="m58.966 56.41h-7.136v-2.065h7.136c.82 0 1.583-.32 2.13-.882.583-.566.903-1.33.903-2.15 0-1.672-1.361-3.033-3.034-3.033h-7.136s7.119-8.279 7.119-18.82c.001-16.245-13.221-29.46-29.473-29.46s-29.475 13.215-29.475 29.459 13.222 29.459 29.475 29.459h6.208c.479 2.878 2.981 5.082 5.995 5.082h9.153c.552 0 1-.448 1-1v-.524h7.136c.82 0 1.583-.32 2.131-.883.582-.566.903-1.33.903-2.15 0-1.672-1.361-3.033-3.034-3.033zm0-6.131c.57 0 1.034.463 1.034 1.033 0 .275-.105.53-.316.735-.187.192-.441.297-.717.297h-7.136v-2.065h7.136zm-56.966-20.82c0-15.141 12.325-27.459 27.475-27.459s27.475 12.318 27.475 27.459c0 6.388-2.228 12.201-6.594 17.295h-8.677c-3.014 0-5.516 2.204-5.995 5.082h-6.208c-12.346 0-22.39-10.038-22.39-22.377s10.043-22.377 22.389-22.377 22.39 10.038 22.39 22.377c0 4.064-1.203 8.096-3.478 11.659-.297.465-.161 1.083.305 1.381s1.084.161 1.381-.305c2.481-3.884 3.792-8.288 3.792-12.735 0-13.441-10.941-24.377-24.39-24.377s-24.39 10.936-24.39 24.377 10.941 24.377 24.39 24.377h6.119v3.082h-6.119c-15.15 0-27.475-12.318-27.475-27.459zm47.831 32.541h-8.153c-2.252 0-4.084-1.831-4.084-4.082v-5.082c0-2.251 1.833-4.082 4.084-4.082h8.153zm9.853-1.822c-.187.192-.441.297-.717.297h-7.136v-2.066h7.136c.57 0 1.034.463 1.034 1.033 0 .276-.105.53-.316.736z"/><path d="m45 52c-.552 0-1 .448-1 1v5c0 .552.448 1 1 1s1-.448 1-1v-5c0-.552-.448-1-1-1z"/><circle cx="47" cy="44.448" r="1"/></svg>