<?xml version="1.0" encoding="UTF-8"?>
<svg xmlns="http://www.w3.org/2000/svg" viewBox="0 0 64 64" width="512" height="512"><g id="Electric_Pole" data-name="Electric Pole"><path d="M33,34H31a1,1,0,0,0,0,2h2a1,1,0,0,0,0-2Z"/><path d="M17,34H15a1,1,0,0,0,0,2h2a1,1,0,0,0,0-2Z"/><path d="M49,34H47a1,1,0,0,0,0,2h2a1,1,0,0,0,0-2Z"/><path d="M62.8584,27.01025A18.88749,18.88749,0,0,1,51.51318,25.1416,1.886,1.886,0,0,0,51,25H49V24a1,1,0,0,0-2,0v1H45a1,1,0,0,0-1,1v4H37V25.44519L46.38354,17H55a1,1,0,0,0,1-1V8a1,1,0,0,0-1-1H52V4.59521a21.08654,21.08654,0,0,0,8.11328,1.61036,21.40888,21.40888,0,0,0,3.02832-.21582.99983.99983,0,1,0-.2832-1.9795A18.88328,18.88328,0,0,1,51.51318,2.1416,1.90059,1.90059,0,0,0,51,2H49V1a1,1,0,0,0-2,0V2H45a1,1,0,0,0-1,1V7H37V4a1,1,0,0,0-1-1H28a1,1,0,0,0-1,1V7H20V3a1,1,0,0,0-1-1H17V1a1,1,0,0,0-2,0V2H13a2.02718,2.02718,0,0,0-.51465.14258A18.76093,18.76093,0,0,1,1.1416,4.01025a.99983.99983,0,0,0-.2832,1.9795,21.338,21.338,0,0,0,3.02832.21582A21.08746,21.08746,0,0,0,12,4.59515V7H9A1,1,0,0,0,8,8v8a1,1,0,0,0,1,1h8.61646L27,25.44519V30H20V26a1,1,0,0,0-1-1H17V24a1,1,0,0,0-2,0v1H13a1.98625,1.98625,0,0,0-.51465.14258A18.75259,18.75259,0,0,1,1.1416,27.01025a.99983.99983,0,0,0-.2832,1.9795,21.338,21.338,0,0,0,3.02832.21582A21.08746,21.08746,0,0,0,12,27.59515V30H9a1,1,0,0,0-1,1v8a1,1,0,0,0,1,1h8.61646L27,48.44519V53H25a1,1,0,0,0,0,2h1v7H25a1,1,0,0,0,0,2H39a1,1,0,0,0,0-2H38V55h1a1,1,0,0,0,0-2H37V48.44519L46.38354,40H55a1,1,0,0,0,1-1V31a1,1,0,0,0-1-1H52V27.59521a21.08654,21.08654,0,0,0,8.11328,1.61036,21.40888,21.40888,0,0,0,3.02832-.21582.99983.99983,0,0,0-.2832-1.9795ZM37,22.75476V17h6.39423ZM46,4h4V7H46ZM29,5h6V7H29ZM14,4h4V7H14ZM10,9H54v6H10Zm10.60577,8H27v5.75476ZM29,17h6V30H29ZM14,27h4v3H14Zm6.60577,13H27v5.75476ZM36,62H28V55h8Zm-7-9V40h6V53Zm8-7.24524V40h6.39423ZM54,38H10V32H54Zm-8-8V27h4v3Z"/><path d="M31,13h2a1,1,0,0,0,0-2H31a1,1,0,0,0,0,2Z"/><path d="M17,11H15a1,1,0,0,0,0,2h2a1,1,0,0,0,0-2Z"/><path d="M47,13h2a1,1,0,0,0,0-2H47a1,1,0,0,0,0,2Z"/></g></svg>
