<?xml version="1.0" encoding="UTF-8" standalone="no"?>
<!-- Created with Inkscape (http://www.inkscape.org/) -->

<svg
   version="1.1"
   id="svg1329"
   xml:space="preserve"
   width="682.66669"
   height="682.66669"
   viewBox="0 0 682.66669 682.66669"
   xmlns="http://www.w3.org/2000/svg"
   xmlns:svg="http://www.w3.org/2000/svg"><defs
     id="defs1333"><clipPath
       clipPathUnits="userSpaceOnUse"
       id="clipPath1343"><path
         d="M 0,512 H 512 V 0 H 0 Z"
         id="path1341" /></clipPath></defs><g
     id="g1335"
     transform="matrix(1.3333333,0,0,-1.3333333,0,682.66667)"><g
       id="g1337"><g
         id="g1339"
         clip-path="url(#clipPath1343)"><g
           id="g1345"
           transform="translate(148.9141,358.2705)"><path
             d="m 0,0 c 25.347,-4.216 49.793,1.354 70.885,22.045 9.857,9.669 17.2,22.688 22.615,36.988"
             style="fill:none;stroke:#000000;stroke-width:15;stroke-linecap:round;stroke-linejoin:round;stroke-miterlimit:10;stroke-dasharray:none;stroke-opacity:1"
             id="path1347" /></g><g
           id="g1349"
           transform="translate(251.4497,450.0903)"><path
             d="M 0,0 C 2.603,13.611 3.976,27.035 4.538,38.752 4.818,44.577 0.27,49.213 -5.559,49.045 -39.548,48.065 -87.997,40.569 -114.147,15.537"
             style="fill:none;stroke:#000000;stroke-width:15;stroke-linecap:round;stroke-linejoin:round;stroke-miterlimit:10;stroke-dasharray:none;stroke-opacity:1"
             id="path1351" /></g><g
           id="g1353"
           transform="translate(210.1021,453.9268)"><path
             d="M 0,0 -42.87,-42.056"
             style="fill:none;stroke:#000000;stroke-width:15;stroke-linecap:round;stroke-linejoin:round;stroke-miterlimit:10;stroke-dasharray:none;stroke-opacity:1"
             id="path1355" /></g><g
           id="g1357"
           transform="translate(24.2744,484.6216)"><path
             d="M 0,0 C -0.224,5.827 4.368,10.419 10.195,10.195 44.44,8.879 93.309,0.804 119.064,-24.951 c 22.823,-22.823 27.64,-49.821 21.376,-77.73 -3.075,-13.702 -13.861,-24.489 -27.564,-27.564 -27.909,-6.264 -54.907,-1.447 -77.73,21.376 C 9.392,-83.114 1.316,-34.245 0,0 Z"
             style="fill:none;stroke:#000000;stroke-width:15;stroke-linecap:round;stroke-linejoin:round;stroke-miterlimit:10;stroke-dasharray:none;stroke-opacity:1"
             id="path1359" /></g><g
           id="g1361"
           transform="translate(69.8237,449.2676)"><path
             d="M 0,0 54.595,-54.595 C 73.417,-73.417 84.23,-98.752 84.838,-125.304"
             style="fill:none;stroke:#000000;stroke-width:15;stroke-linecap:round;stroke-linejoin:round;stroke-miterlimit:10;stroke-dasharray:none;stroke-opacity:1"
             id="path1363" /></g><g
           id="g1365"
           transform="translate(236.7422,199.0518)"><path
             d="m 0,0 -22.471,116.231 c -0.91,4.704 -5.028,8.102 -9.819,8.102 h -116.405 c -4.791,0 -8.909,-3.398 -9.818,-8.102 l -37.611,-194.536"
             style="fill:none;stroke:#000000;stroke-width:15;stroke-linecap:round;stroke-linejoin:round;stroke-miterlimit:10;stroke-dasharray:none;stroke-opacity:1"
             id="path1367" /></g><g
           id="g1369"
           transform="translate(225.8398,119.4639)"><path
             d="M 0,0 H -59.839"
             style="fill:none;stroke:#000000;stroke-width:15;stroke-linecap:round;stroke-linejoin:round;stroke-miterlimit:10;stroke-dasharray:none;stroke-opacity:1"
             id="path1371" /></g><g
           id="g1373"
           transform="translate(161.5356,12.8584)"><path
             d="M 0,0 H 64.304"
             style="fill:none;stroke:#000000;stroke-width:15;stroke-linecap:round;stroke-linejoin:round;stroke-miterlimit:10;stroke-dasharray:none;stroke-opacity:1"
             id="path1375" /></g><g
           id="g1377"
           transform="translate(132,119.4639)"><path
             d="m 0,0 h -114.5 c -5.523,0 -10,-4.478 -10,-10 v -86.605 c 0,-5.523 4.477,-10 10,-10 h 32.821"
             style="fill:none;stroke:#000000;stroke-width:15;stroke-linecap:round;stroke-linejoin:round;stroke-miterlimit:10;stroke-dasharray:none;stroke-opacity:1"
             id="path1379" /></g><g
           id="g1381"
           transform="translate(402.2856,12.8584)"><path
             d="M 0,0 H -51.082"
             style="fill:none;stroke:#000000;stroke-width:15;stroke-linecap:round;stroke-linejoin:round;stroke-miterlimit:10;stroke-dasharray:none;stroke-opacity:1"
             id="path1383" /></g><g
           id="g1385"
           transform="translate(481.478,246.9541)"><path
             d="m 0,0 v -224.096 c 0,-5.523 -4.477,-10 -10,-10 h -22.049"
             style="fill:none;stroke:#000000;stroke-width:15;stroke-linecap:round;stroke-linejoin:round;stroke-miterlimit:10;stroke-dasharray:none;stroke-opacity:1"
             id="path1387" /></g><g
           id="g1389"
           transform="translate(363.9028,204.1899)"><path
             d="m 0,0 121.551,79.272 c 4.568,2.979 10.686,1.691 13.666,-2.876 l 3.776,-5.79 c 2.979,-4.568 1.691,-10.687 -2.878,-13.666 L 0.563,-31.464"
             style="fill:none;stroke:#000000;stroke-width:15;stroke-linecap:round;stroke-linejoin:round;stroke-miterlimit:10;stroke-dasharray:none;stroke-opacity:1"
             id="path1391" /></g><g
           id="g1393"
           transform="translate(446.4775,12.8584)"><path
             d="m 0,0 h -42.462 v 58.383 c 0,5.453 4.421,9.875 9.875,9.875 H -9.875 C -4.421,68.258 0,63.836 0,58.383 Z"
             style="fill:none;stroke:#000000;stroke-width:15;stroke-linecap:round;stroke-linejoin:round;stroke-miterlimit:10;stroke-dasharray:none;stroke-opacity:1"
             id="path1395" /></g><g
           id="g1397"
           transform="translate(329.3213,12.8584)"><path
             d="m 0,0 h 23.658 c 5.523,0 10,4.477 10,10 v 75.142"
             style="fill:none;stroke:#000000;stroke-width:15;stroke-linecap:round;stroke-linejoin:round;stroke-miterlimit:10;stroke-dasharray:none;stroke-opacity:1"
             id="path1399" /></g><g
           id="g1401"
           transform="translate(226.7056,159.0801)"><path
             d="M 0,0 V -146.222 H 56.973"
             style="fill:none;stroke:#000000;stroke-width:15;stroke-linecap:round;stroke-linejoin:round;stroke-miterlimit:10;stroke-dasharray:none;stroke-opacity:1"
             id="path1403" /></g><g
           id="g1405"
           transform="translate(362.979,132)"><path
             d="M 0,0 V 115.954"
             style="fill:none;stroke:#000000;stroke-width:15;stroke-linecap:round;stroke-linejoin:round;stroke-miterlimit:10;stroke-dasharray:none;stroke-opacity:1"
             id="path1407" /></g><g
           id="g1409"
           transform="translate(195.604,151.6704)"><path
             d="m 0,0 -3.776,5.79 c -2.979,4.567 -1.691,10.686 2.877,13.665 l 172.25,112.337 c 4.568,2.979 10.686,1.691 13.666,-2.877 l 3.775,-5.79 c 2.979,-4.568 1.691,-10.686 -2.876,-13.666 L 13.666,-2.877 C 9.098,-5.856 2.979,-4.568 0,0 Z"
             style="fill:none;stroke:#000000;stroke-width:15;stroke-linecap:round;stroke-linejoin:round;stroke-miterlimit:10;stroke-dasharray:none;stroke-opacity:1"
             id="path1411" /></g><g
           id="g1413"
           transform="translate(327.9785,12.8584)"><path
             d="m 0,0 h -42.462 v 58.383 c 0,5.453 4.421,9.875 9.875,9.875 H -9.875 C -4.421,68.258 0,63.836 0,58.383 Z"
             style="fill:none;stroke:#000000;stroke-width:15;stroke-linecap:round;stroke-linejoin:round;stroke-miterlimit:10;stroke-dasharray:none;stroke-opacity:1"
             id="path1415" /></g><path
           d="M 159.574,12.858 H 51.608 v 73.03 h 107.966 z"
           style="fill:none;stroke:#000000;stroke-width:15;stroke-linecap:round;stroke-linejoin:round;stroke-miterlimit:10;stroke-dasharray:none;stroke-opacity:1"
           id="path1417" /><g
           id="g1419"
           transform="translate(53.6079,61.5513)"><path
             d="M 0,0 H 104.966"
             style="fill:none;stroke:#000000;stroke-width:15;stroke-linecap:round;stroke-linejoin:round;stroke-miterlimit:10;stroke-dasharray:none;stroke-opacity:1"
             id="path1421" /></g><g
           id="g1423"
           transform="translate(158.5737,37.1958)"><path
             d="M 0,0 H -104.966"
             style="fill:none;stroke:#000000;stroke-width:15;stroke-linecap:round;stroke-linejoin:round;stroke-miterlimit:10;stroke-dasharray:none;stroke-opacity:1"
             id="path1425" /></g><g
           id="g1427"
           transform="translate(144.4956,279.0703)"><path
             d="m 0,0 -31.312,-50.209 c -2.524,-4.05 0.387,-9.296 5.159,-9.296 h 18.424 v -38.052 c 0,-6.11 8.004,-8.401 11.238,-3.216 l 31.311,50.209 c 2.525,4.049 -0.386,9.296 -5.158,9.296 H 11.237 V -3.217 C 11.237,2.894 3.233,5.185 0,0"
             style="fill:none;stroke:#000000;stroke-width:15;stroke-linecap:round;stroke-linejoin:round;stroke-miterlimit:10;stroke-dasharray:none;stroke-opacity:1"
             id="path1429" /></g><g
           id="g1431"
           transform="translate(183.8701,60)"><path
             d="M 0,0 V -7.626"
             style="fill:none;stroke:#000000;stroke-width:15;stroke-linecap:round;stroke-linejoin:round;stroke-miterlimit:10;stroke-dasharray:none;stroke-opacity:1"
             id="path1433" /></g></g></g></g></svg>
