<svg id="Capa_1" enable-background="new 0 0 512 512" height="512" viewBox="0 0 512 512" width="512" xmlns="http://www.w3.org/2000/svg"><g><path d="m496.299 249.155c1.706 1.184 3.7 1.784 5.702 1.784 5.508 0 9.999-4.47 9.999-10v-60.245c0-3.278-1.606-6.347-4.299-8.216l-55.946-38.82v-103.576c0-5.523-4.478-10-10-10h-60.245c-5.523 0-10 4.477-10 10v47.897l-109.809-76.195c-3.428-2.379-7.974-2.379-11.401 0l-246 170.694c-2.694 1.869-4.3 4.938-4.3 8.216v60.245c0 3.721 2.066 7.135 5.364 8.86 3.296 1.724 7.279 1.477 10.337-.645l24.462-16.974v259.82h-30.163c-5.523 0-10 4.477-10 10s4.477 10 10 10h492c5.522 0 10-4.477 10-10s-4.478-10-10-10h-30.163v-259.819zm-104.789-209.073h40.245v79.699l-40.245-27.925zm-371.51 145.845 236-163.756c26.367 18.295 199.344 138.32 236 163.755v35.902c-13.201-9.16-221.503-153.696-230.299-159.799-3.428-2.379-7.974-2.379-11.401 0-8.918 6.188-216.322 150.101-230.3 159.8zm100.408 306.073v-192h100.49v192zm331.429 0h-210.939v-202c0-5.523-4.477-10-10-10h-120.49c-5.523 0-10 4.477-10 10v202h-40.245v-273.697l195.837-135.886 195.837 135.887z"/><path d="m281.143 289.632v90.368c0 5.523 4.477 10 10 10h110.449c5.523 0 10-4.477 10-10v-90.368c0-5.523-4.477-10-10-10h-110.449c-5.523 0-10 4.477-10 10zm20 55.184h35.224v25.184h-35.224zm55.224 25.184v-25.184h35.225v25.184zm35.225-45.184h-35.225v-25.184h35.225zm-55.225-25.184v25.184h-35.224v-25.184z"/><path d="m210.857 185.714c0 24.892 20.251 45.143 45.143 45.143s45.143-20.251 45.143-45.143-20.251-45.143-45.143-45.143-45.143 20.251-45.143 45.143zm70.286 0c0 13.864-11.279 25.143-25.143 25.143s-25.143-11.279-25.143-25.143 11.279-25.143 25.143-25.143 25.143 11.28 25.143 25.143z"/></g></svg>