<?xml version="1.0"?>
<svg xmlns="http://www.w3.org/2000/svg" id="Layer_1" data-name="Layer 1" viewBox="0 0 512 512" width="512" height="512">
  <!-- Shift all content to the left by adjusting the transform -->
  <g transform="translate(0, 0)">
    <path d="M124.641,30.019a22.309,22.309,0,1,0,22.31,22.309A22.335,22.335,0,0,0,124.641,30.019Zm0,30.614a8.305,8.305,0,1,1,8.306-8.3A8.315,8.315,0,0,1,124.641,60.633ZM137.794,402.41A22.792,22.792,0,1,0,160.557,425.2,22.818,22.818,0,0,0,137.794,402.41Zm0,31.579a8.788,8.788,0,1,1,8.758-8.787A8.8,8.8,0,0,1,137.794,433.989Zm109.56-202.736a30.473,30.473,0,1,0-30.473-30.473A30.507,30.507,0,0,0,247.354,231.253Zm0-46.942a16.469,16.469,0,1,1-16.469,16.469A16.487,16.487,0,0,1,247.354,184.311Zm-58.442,1.824a7,7,0,0,0-5.24,5.8,64.485,64.485,0,0,0,0,17.683,7,7,0,0,0,5.212,5.8l7.287,1.844a53.171,53.171,0,0,0,3.35,8.085l-3.863,6.436a7,7,0,0,0,.432,7.85,64.937,64.937,0,0,0,12.456,12.423,7,7,0,0,0,7.808.432l6.47-3.859a53.291,53.291,0,0,0,8.077,3.349l1.806,7.263a7,7,0,0,0,5.854,5.254,65.314,65.314,0,0,0,17.592,0A7,7,0,0,0,262,259.272l1.841-7.292a53.307,53.307,0,0,0,8.078-3.35l6.468,3.86a7.005,7.005,0,0,0,7.827-.446,65.49,65.49,0,0,0,12.41-12.409,7,7,0,0,0,.445-7.827l-3.856-6.464a52.687,52.687,0,0,0,3.36-8.086l7.277-1.836a7,7,0,0,0,5.23-5.875,64.563,64.563,0,0,0,0-17.534,7,7,0,0,0-5.258-5.88l-7.249-1.8a53.062,53.062,0,0,0-3.352-8.091l3.848-6.458a7,7,0,0,0-.432-7.809,64.857,64.857,0,0,0-12.423-12.457,7,7,0,0,0-7.849-.432l-6.437,3.863a53.171,53.171,0,0,0-8.085-3.35L262,142.288a7,7,0,0,0-5.861-5.226,67.857,67.857,0,0,0-17.548,0,7,7,0,0,0-5.879,5.257L230.9,149.6a53.129,53.129,0,0,0-8.085,3.35l-6.437-3.863a7,7,0,0,0-7.831.418,64.3,64.3,0,0,0-12.47,12.471,7,7,0,0,0-.418,7.831l3.863,6.436a53.087,53.087,0,0,0-3.35,8.085Zm8.2,12.388,6.422-1.611a7,7,0,0,0,5.114-5.21,39.325,39.325,0,0,1,4.912-11.867,7,7,0,0,0,.066-7.267l-3.411-5.721q1.53-1.673,3.2-3.2l5.721,3.411a7.005,7.005,0,0,0,7.27-.066,39.293,39.293,0,0,1,11.865-4.912,7,7,0,0,0,5.21-5.115l1.61-6.422c1.512-.063,3.04-.062,4.539,0l1.616,6.422a7,7,0,0,0,5.21,5.115,39.293,39.293,0,0,1,11.865,4.912,7.009,7.009,0,0,0,7.27.067l5.709-3.4q1.671,1.533,3.2,3.208l-3.4,5.708a7,7,0,0,0,.066,7.267,39.325,39.325,0,0,1,4.912,11.867,7,7,0,0,0,5.106,5.208l6.425,1.617q.052,1.139.052,2.253c0,.752-.017,1.509-.053,2.276l-6.424,1.623a7,7,0,0,0-5.106,5.208,38.652,38.652,0,0,1-4.923,11.837,7,7,0,0,0-.067,7.324l3.4,5.669q-1.53,1.672-3.2,3.206l-5.669-3.4a7,7,0,0,0-7.324.067,39.453,39.453,0,0,1-11.873,4.932,7,7,0,0,0-5.172,5.1l-1.623,6.422q-2.262.1-4.529,0l-1.617-6.422a7,7,0,0,0-5.172-5.1,39.453,39.453,0,0,1-11.873-4.932,7.009,7.009,0,0,0-7.325-.067l-5.68,3.408q-1.673-1.525-3.208-3.2l3.4-5.71a7,7,0,0,0-.066-7.268,39.32,39.32,0,0,1-4.912-11.866,7,7,0,0,0-5.114-5.21l-6.422-1.618c-.032-.745-.047-1.5-.047-2.279S197.082,199.261,197.115,198.523ZM459.473,372.675H436.4V362.016a25.468,25.468,0,0,0-11.338-21.176l-9.513-170.289a54.774,54.774,0,1,0-55.663-94.338L169.393,36.4a47.49,47.49,0,1,0-68.365,57.117v78.574H94.14a7,7,0,0,0-7,7v31.38c0,.081.009.16.012.241s-.012.159-.012.241v29.594a7.008,7.008,0,0,0,1.519,4.355l13.012,16.384a7,7,0,0,0,10.965-8.709l-11.492-14.472V217.477h47v20.632l-11.492,14.472a7,7,0,0,0,10.967,8.709l13.011-16.384a7.008,7.008,0,0,0,1.519-4.355v-29.2c0-.149-.014-.294-.023-.44.009-.146.023-.291.023-.439V179.1a7,7,0,0,0-7-7h-6.859V93.511a47.749,47.749,0,0,0,7.111-5.013l184.9,60.75a55.185,55.185,0,0,0,20.913,21.3L351.7,340.84a25.469,25.469,0,0,0-11.339,21.176v10.659H316.606V295.8a11.452,11.452,0,0,0-11.424-11.453H216.428A11.452,11.452,0,0,0,205,295.8v76.876H180.456V295.8A11.466,11.466,0,0,0,169,284.346H80.278A11.466,11.466,0,0,0,68.826,295.8v76.876h-16.3a52.527,52.527,0,0,0,0,105.054h7.427v22.422a7,7,0,0,0,7,7H445.045a7,7,0,0,0,7-7V477.729h7.426a52.527,52.527,0,0,0,0-105.054ZM148.14,203.473h-47V186.1h47Zm-33.108-31.38V98.859a47.646,47.646,0,0,0,19.247-.006v73.24Zm9.609-86.26a33.491,33.491,0,1,1,32.393-42.057c.043.216.095.43.158.639a33.482,33.482,0,0,1-32.551,41.418ZM333.585,123a54.9,54.9,0,0,0,.857,9.588L165.232,76.992a47.217,47.217,0,0,0,6.918-24.664c0-.352-.019-.7-.026-1.049L346.5,87.721A54.535,54.535,0,0,0,333.585,123Zm14,0a40.791,40.791,0,1,1,40.79,40.79A40.836,40.836,0,0,1,347.589,123ZM410.8,336.533H365.963l8.961-160.418a54.819,54.819,0,0,0,26.911,0Zm-56.433,25.483a11.507,11.507,0,0,1,11.509-11.479h45.015A11.507,11.507,0,0,1,422.4,362.016v10.659H354.363Zm-97.909-63.665h8.7v12.786l-.029-.024a7,7,0,0,0-8.606,0l-.066.051Zm-37.446,0H242.45v27.127a7,7,0,0,0,11.3,5.526l7.061-5.5L267.851,331a7,7,0,0,0,11.308-5.52V298.351H302.6v74.324H219.008Zm-98.7,0h8.7v12.808l-.065-.051a7,7,0,0,0-8.606,0l-.031.025Zm-37.474,0H106.3v27.127A7,7,0,0,0,117.608,331l7.038-5.489,7.062,5.5a7,7,0,0,0,11.3-5.526V298.351h23.442v74.324H82.83Zm355.213,194.8H73.958v-15.42H438.043Zm21.43-29.424H52.527a38.523,38.523,0,0,1,0-77.046H459.473a38.523,38.523,0,0,1,0,77.046ZM216.6,402.41A22.792,22.792,0,1,0,239.389,425.2,22.818,22.818,0,0,0,216.6,402.41Zm0,31.579a8.788,8.788,0,1,1,8.787-8.787A8.8,8.8,0,0,1,216.6,433.989ZM58.962,402.41A22.792,22.792,0,1,0,81.753,425.2,22.8,22.8,0,0,0,58.962,402.41Zm0,31.579a8.788,8.788,0,1,1,8.787-8.787A8.782,8.782,0,0,1,58.962,433.989ZM295.4,402.41A22.792,22.792,0,1,0,318.193,425.2,22.818,22.818,0,0,0,295.4,402.41Zm0,31.579a8.788,8.788,0,1,1,8.787-8.787A8.8,8.8,0,0,1,295.4,433.989ZM453.039,402.41A22.792,22.792,0,1,0,475.8,425.2,22.819,22.819,0,0,0,453.039,402.41Zm0,31.579A8.788,8.788,0,1,1,461.8,425.2,8.8,8.8,0,0,1,453.039,433.989ZM374.207,402.41A22.792,22.792,0,1,0,397,425.2,22.8,22.8,0,0,0,374.207,402.41Zm0,31.579a8.788,8.788,0,1,1,8.787-8.787A8.782,8.782,0,0,1,374.207,433.989ZM415.536,123a27.157,27.157,0,1,0-27.157,27.157A27.188,27.188,0,0,0,415.536,123Zm-40.309,0a13.153,13.153,0,1,1,13.152,13.152A13.168,13.168,0,0,1,375.227,123Z"/>
  </g>
</svg>