<svg xmlns="http://www.w3.org/2000/svg" height="588pt" version="1.1" viewBox="-21 0 588 588.06075" width="588pt">
<g id="surface1">
<path d="M 303.5625 0 L 244.820312 0 C 238.285156 0.0273438 232.992188 5.320312 232.964844 11.855469 L 232.964844 21.253906 C 191.574219 24.855469 159.8125 59.496094 159.800781 101.039062 L 159.800781 284 L 134.167969 284 C 109.847656 284.03125 90.140625 303.738281 90.109375 328.058594 L 90.109375 550.324219 L 19.882812 550.324219 C 9.488281 549.769531 0.613281 557.746094 0.0546875 568.144531 C -0.5 578.542969 7.480469 587.417969 17.875 587.972656 C 18.542969 588.011719 19.210938 588.011719 19.882812 587.972656 L 528.5 587.972656 C 538.898438 587.417969 546.875 578.542969 546.320312 568.144531 C 545.808594 558.519531 538.121094 550.835938 528.5 550.324219 L 458.328125 550.324219 L 458.328125 328.058594 C 458.292969 303.738281 438.589844 284.03125 414.269531 284 L 388.636719 284 L 388.636719 101.039062 C 388.625 59.496094 356.859375 24.855469 315.472656 21.253906 L 315.472656 11.855469 C 315.445312 5.296875 310.121094 0 303.5625 0 Z M 248.933594 16.019531 L 299.398438 16.019531 L 299.398438 20.882812 L 248.933594 20.882812 Z M 175.769531 125.390625 L 372.5625 125.390625 L 372.5625 142.746094 L 175.769531 142.746094 Z M 175.769531 158.769531 L 372.5625 158.769531 L 372.5625 194.121094 L 175.769531 194.121094 Z M 372.5625 210.140625 L 372.5625 227.5 L 175.824219 227.5 L 175.824219 210.140625 Z M 106.078125 328.058594 C 106.109375 312.585938 118.644531 300.050781 134.113281 300.019531 L 159.75 300.019531 L 159.75 312.835938 L 134.113281 312.835938 C 125.707031 312.835938 118.894531 319.652344 118.894531 328.058594 L 118.894531 550.324219 L 106.078125 550.324219 C 106.078125 550.324219 106.078125 328.058594 106.078125 328.058594 Z M 388.636719 328.859375 L 413.519531 328.859375 L 413.519531 550.324219 L 367.382812 550.324219 L 367.382812 408.699219 C 381.074219 393.984375 388.699219 374.640625 388.742188 354.546875 Z M 351.253906 550.324219 L 346.445312 550.324219 L 346.445312 425.039062 C 348.101562 424.128906 349.703125 423.113281 351.253906 422.101562 Z M 330.425781 550.324219 L 303.726562 550.324219 L 303.726562 434.703125 L 308.316406 434.703125 C 315.777344 434.6875 323.207031 433.632812 330.371094 431.554688 Z M 287.703125 550.324219 L 260.574219 550.324219 L 260.574219 434.703125 L 287.863281 434.703125 Z M 244.394531 550.324219 L 217.691406 550.324219 L 217.691406 431.5 C 224.859375 433.578125 232.285156 434.632812 239.746094 434.652344 L 244.339844 434.652344 Z M 201.671875 550.324219 L 196.863281 550.324219 L 196.863281 422.152344 C 198.464844 423.167969 200.015625 424.183594 201.671875 425.089844 Z M 180.84375 550.324219 L 134.914062 550.324219 L 134.914062 328.859375 L 159.800781 328.859375 L 159.800781 354.492188 C 159.84375 374.585938 167.46875 393.929688 181.164062 408.644531 Z M 528.339844 566.34375 C 529.886719 566.558594 530.964844 567.988281 530.753906 569.535156 C 530.578125 570.792969 529.59375 571.78125 528.339844 571.949219 L 19.882812 571.949219 C 18.335938 572.164062 16.90625 571.085938 16.691406 569.535156 C 16.476562 567.988281 17.554688 566.558594 19.105469 566.34375 C 19.359375 566.304688 19.621094 566.304688 19.878906 566.34375 L 528.492188 566.34375 Z M 414.269531 300.019531 C 429.742188 300.050781 442.273438 312.585938 442.304688 328.058594 L 442.304688 550.324219 L 429.488281 550.324219 L 429.488281 328.058594 C 429.488281 319.652344 422.675781 312.835938 414.269531 312.835938 L 388.636719 312.835938 L 388.636719 300.019531 Z M 372.613281 328.859375 L 372.613281 354.492188 C 372.613281 389.882812 343.921875 418.578125 308.53125 418.578125 L 239.90625 418.578125 C 204.515625 418.578125 175.824219 389.882812 175.824219 354.492188 L 175.824219 243.519531 L 372.5625 243.519531 L 372.5625 328.964844 Z M 372.613281 101.039062 L 372.613281 109.371094 L 175.769531 109.371094 L 175.769531 101.039062 C 175.769531 65.648438 204.464844 36.957031 239.855469 36.957031 L 308.476562 36.957031 C 343.867188 36.957031 372.5625 65.648438 372.5625 101.039062 Z M 372.613281 101.039062 " style=" stroke:none;fill-rule:nonzero;fill:rgb(0%,0%,0%);fill-opacity:1;" />
</g>
</svg>