<?xml version="1.0" encoding="UTF-8"?>
<svg xmlns="http://www.w3.org/2000/svg" id="Layer_1" data-name="Layer 1" viewBox="0 0 64 64" width="512" height="512"><path d="M1,56H12v3a1,1,0,0,0,1,1h3v3a1,1,0,0,0,1,1h8a1,1,0,0,0,1-1V60H38v3a1,1,0,0,0,1,1h8a1,1,0,0,0,1-1V60h3a1,1,0,0,0,1-1V56H63a1,1,0,0,0,1-1V50a1,1,0,0,0-1-1H58V47h3a1,1,0,0,0,1-1V26a1,1,0,0,0-1-1H58V23h5a1,1,0,0,0,1-1V17a1,1,0,0,0-1-1H49V13h1a1,1,0,0,0,0-2H49V9h1a1,1,0,0,0,0-2H49V5h1a1,1,0,0,0,0-2H49a3,3,0,0,0-6,0H42a1,1,0,0,0,0,2h1V7H42a1,1,0,0,0,0,2h1v2H42a1,1,0,0,0,0,2h1v3H35V13h1a1,1,0,0,0,0-2H35V9h1a1,1,0,0,0,0-2H35V5h1a1,1,0,0,0,0-2H35a3,3,0,0,0-6,0H28a1,1,0,0,0,0,2h1V7H28a1,1,0,0,0,0,2h1v2H28a1,1,0,0,0,0,2h1v3H21V13h1a1,1,0,0,0,0-2H21V9h1a1,1,0,0,0,0-2H21V5h1a1,1,0,0,0,0-2H21a3,3,0,0,0-6,0H14a1,1,0,0,0,0,2h1V7H14a1,1,0,0,0,0,2h1v2H14a1,1,0,0,0,0,2h1v3H1a1,1,0,0,0-1,1v5a1,1,0,0,0,1,1H6v2H3a1,1,0,0,0-1,1V46a1,1,0,0,0,1,1H6v2H1a1,1,0,0,0-1,1v5A1,1,0,0,0,1,56Zm23,6H18V60h6Zm22,0H40V60h6Zm4-4H14V56H50Zm6-32V48H52V24h4Zm4,1V45H58V27ZM50,49H47V23h3ZM19,24h2V48H19Zm4-1H41V49H23ZM45,48H43V24h2ZM46,2a1,1,0,0,1,1,1H45A1,1,0,0,1,46,2ZM45,5h2V7H45Zm0,4h2v2H45Zm0,4h2v3H45ZM32,2a1,1,0,0,1,1,1H31A1,1,0,0,1,32,2ZM31,5h2V7H31Zm0,4h2v2H31Zm0,4h2v3H31ZM18,2a1,1,0,0,1,1,1H17A1,1,0,0,1,18,2ZM17,5h2V7H17Zm0,4h2v2H17Zm0,4h2v3H17ZM2,21V18H62v3ZM8,46V24h4V48H8ZM4,45V27H6V45ZM14,23h3V49H14ZM2,51H62v3H2Z"/><path d="M38,32H34.618L37.9,25.447A1,1,0,0,0,37,24H32a1,1,0,0,0-.895.553l-6,12A1,1,0,0,0,26,38H29.9l-.89,8.9a1,1,0,0,0,1.863.6l8-14A1,1,0,0,0,38,32ZM31.462,42.425,32,37.1A1,1,0,0,0,31,36H27.618l5-10h2.764L32.1,32.553A1,1,0,0,0,33,34h3.277Z"/></svg>
