<?xml version="1.0" encoding="UTF-8" standalone="no"?>
<!-- Created with Inkscape (http://www.inkscape.org/) -->

<svg
   version="1.1"
   id="svg1614"
   xml:space="preserve"
   width="682.66669"
   height="682.66669"
   viewBox="0 0 682.66669 682.66669"
   xmlns="http://www.w3.org/2000/svg"
   xmlns:svg="http://www.w3.org/2000/svg"><defs
     id="defs1618"><clipPath
       clipPathUnits="userSpaceOnUse"
       id="clipPath1632"><path
         d="M 0,512 H 512 V 0 H 0 Z"
         id="path1630" /></clipPath></defs><g
     id="g1620"
     transform="matrix(1.3333333,0,0,-1.3333333,0,682.66667)"><g
       id="g1622"
       transform="translate(304.5601,420.5298)"><path
         d="M 0,0 -19.67,-63.5"
         style="fill:none;stroke:#000000;stroke-width:15;stroke-linecap:round;stroke-linejoin:round;stroke-miterlimit:10;stroke-dasharray:none;stroke-opacity:1"
         id="path1624" /></g><g
       id="g1626"><g
         id="g1628"
         clip-path="url(#clipPath1632)"><g
           id="g1634"
           transform="translate(332.8569,441.3965)"><path
             d="m 0,0 c 0,-12.059 -9.775,-21.833 -21.833,-21.833 -12.059,0 -21.834,9.774 -21.834,21.833 0,12.058 9.775,21.833 21.834,21.833 C -9.775,21.833 0,12.058 0,0 Z"
             style="fill:none;stroke:#000000;stroke-width:15;stroke-linecap:round;stroke-linejoin:round;stroke-miterlimit:10;stroke-dasharray:none;stroke-opacity:1"
             id="path1636" /></g><g
           id="g1638"
           transform="translate(392.8198,200.52)"><path
             d="M 0,0 H 60.13 V -153.93"
             style="fill:none;stroke:#000000;stroke-width:15;stroke-linecap:round;stroke-linejoin:round;stroke-miterlimit:10;stroke-dasharray:130, 30;stroke-dashoffset:0;stroke-opacity:1"
             id="path1640" /></g><g
           id="g1642"
           transform="translate(504.5,16.8599)"><path
             d="m 0,0 v 56.44 147.82 c 0,17.09 -13.86,30.95 -30.95,30.95 h -80.73"
             style="fill:none;stroke:#000000;stroke-width:15;stroke-linecap:round;stroke-linejoin:round;stroke-miterlimit:10;stroke-dasharray:none;stroke-opacity:1"
             id="path1644" /></g><g
           id="g1646"
           transform="translate(164.2402,351.23)"><path
             d="M 0,0 V 34.56"
             style="fill:none;stroke:#000000;stroke-width:15;stroke-linecap:round;stroke-linejoin:round;stroke-miterlimit:10;stroke-dasharray:none;stroke-opacity:1"
             id="path1648" /></g><g
           id="g1650"
           transform="translate(111.2598,351.23)"><path
             d="M 0,0 V 34.56"
             style="fill:none;stroke:#000000;stroke-width:15;stroke-linecap:round;stroke-linejoin:round;stroke-miterlimit:10;stroke-dasharray:none;stroke-opacity:1"
             id="path1652" /></g><g
           id="g1654"
           transform="translate(111.2598,421.4199)"><path
             d="M 0,0 V 30.1 H -103.76 V 83.08 H 21.11 c 17.6,0 31.87,-14.27 31.87,-31.87 L 52.98,0"
             style="fill:none;stroke:#000000;stroke-width:15;stroke-linecap:round;stroke-linejoin:round;stroke-miterlimit:10;stroke-dasharray:230, 30;stroke-dashoffset:0;stroke-opacity:1"
             id="path1656" /></g><g
           id="g1658"
           transform="translate(94.1401,313.5098)"><path
             d="m 0,0 v 3.17 26.31 c 0,4.55 3.69,8.24 8.24,8.24 h 70.74 c 4.55,0 8.24,-3.69 8.24,-8.24 V 3.17"
             style="fill:none;stroke:#000000;stroke-width:15;stroke-linecap:round;stroke-linejoin:round;stroke-miterlimit:10;stroke-dasharray:none;stroke-opacity:1"
             id="path1660" /></g><g
           id="g1662"
           transform="translate(171.3643,421.4209)"><path
             d="m 0,0 h -67.227 c -5.523,0 -10,-4.478 -10,-10 v -15.626 c 0,-5.523 4.477,-10 10,-10 H 0 c 5.522,0 10,4.477 10,10 V -10 C 10,-4.478 5.522,0 0,0 Z"
             style="fill:none;stroke:#000000;stroke-width:15;stroke-linecap:round;stroke-linejoin:round;stroke-miterlimit:10;stroke-dasharray:none;stroke-opacity:1"
             id="path1664" /></g><g
           id="g1666"
           transform="translate(234.5298,316.6802)"><path
             d="m 0,0 v 28.43 c 1.46,6.95 7.58,11.92 14.68,11.92 h 63.46 c 8.28,0 15,-6.71 15,-15 V 0"
             style="fill:none;stroke:#000000;stroke-width:15;stroke-linecap:round;stroke-linejoin:round;stroke-miterlimit:10;stroke-dasharray:none;stroke-opacity:1"
             id="path1668" /></g><g
           id="g1670"
           transform="translate(371.1299,147.9302)"><path
             d="M 0,0 V -42.82 H -293.13 V 0"
             style="fill:none;stroke:#000000;stroke-width:15;stroke-linecap:round;stroke-linejoin:round;stroke-miterlimit:10;stroke-dasharray:none;stroke-opacity:1"
             id="path1672" /></g><g
           id="g1674"
           transform="translate(50.75,169.7202)"><path
             d="M 0,0 -39.26,8.93 V 116.24 L 0,125.16"
             style="fill:none;stroke:#000000;stroke-width:15;stroke-linecap:round;stroke-linejoin:round;stroke-miterlimit:10;stroke-dasharray:none;stroke-opacity:1"
             id="path1676" /></g><g
           id="g1678"
           transform="translate(379.5,316.6777)"><path
             d="m 0,0 h -30.065 -255.298 -30.065 c -7.357,0 -13.32,-5.963 -13.32,-13.32 v -142.112 c 0,-7.357 5.963,-13.32 13.32,-13.32 H -285.363 -30.065 0 c 7.356,0 13.32,5.963 13.32,13.32 V -13.32 C 13.32,-5.963 7.356,0 0,0 Z"
             style="fill:none;stroke:#000000;stroke-width:15;stroke-linecap:round;stroke-linejoin:round;stroke-miterlimit:10;stroke-dasharray:none;stroke-opacity:1"
             id="path1680" /></g><path
           d="M 349.435,147.926 H 94.137 v 168.752 h 255.298 z"
           style="fill:none;stroke:#000000;stroke-width:15;stroke-linecap:round;stroke-linejoin:round;stroke-miterlimit:10;stroke-dasharray:none;stroke-opacity:1"
           id="path1682" /><g
           id="g1684"
           transform="translate(94.1372,147.9258)"><path
             d="m 0,0 h -30.065 c -7.357,0 -13.32,5.963 -13.32,13.32 v 142.112 c 0,7.357 5.963,13.32 13.32,13.32 l 30.065,0 z"
             style="fill:none;stroke:#000000;stroke-width:15;stroke-linecap:round;stroke-linejoin:round;stroke-miterlimit:10;stroke-dasharray:none;stroke-opacity:1"
             id="path1686" /></g><g
           id="g1688"
           transform="translate(349.4351,147.9258)"><path
             d="m 0,0 h 30.065 c 7.356,0 13.32,5.963 13.32,13.32 v 142.112 c 0,7.357 -5.964,13.32 -13.32,13.32 l -30.065,0 z"
             style="fill:none;stroke:#000000;stroke-width:15;stroke-linecap:round;stroke-linejoin:round;stroke-miterlimit:10;stroke-dasharray:none;stroke-opacity:1"
             id="path1690" /></g><path
           d="m 210.836,187.239 h -79.775 v 90.126 h 79.775 z"
           style="fill:none;stroke:#000000;stroke-width:15;stroke-linecap:round;stroke-linejoin:round;stroke-miterlimit:10;stroke-dasharray:none;stroke-opacity:1"
           id="path1692" /><g
           id="g1694"
           transform="translate(247.9658,263.5396)"><path
             d="M 0,0 H 64.545"
             style="fill:none;stroke:#000000;stroke-width:15;stroke-linecap:round;stroke-linejoin:round;stroke-miterlimit:10;stroke-dasharray:none;stroke-opacity:1"
             id="path1696" /></g><g
           id="g1698"
           transform="translate(247.9658,232.3018)"><path
             d="M 0,0 H 64.545"
             style="fill:none;stroke:#000000;stroke-width:15;stroke-linecap:round;stroke-linejoin:round;stroke-miterlimit:10;stroke-dasharray:none;stroke-opacity:1"
             id="path1700" /></g><g
           id="g1702"
           transform="translate(247.9658,201.064)"><path
             d="M 0,0 H 64.545"
             style="fill:none;stroke:#000000;stroke-width:15;stroke-linecap:round;stroke-linejoin:round;stroke-miterlimit:10;stroke-dasharray:none;stroke-opacity:1"
             id="path1704" /></g><g
           id="g1706"
           transform="translate(168.585,249.9683)"><path
             d="M 0,0 -6.905,-17.667 H 11.632 L 4.727,-35.333"
             style="fill:none;stroke:#000000;stroke-width:15;stroke-linecap:round;stroke-linejoin:round;stroke-miterlimit:10;stroke-dasharray:none;stroke-opacity:1"
             id="path1708" /></g><g
           id="g1710"
           transform="translate(399.4199,59.8799)"><path
             d="m 0,0 v 35.23 c 0,5.52 -4.48,10 -10,10 H -392.24 V 13.42 -52.38 H 0"
             style="fill:none;stroke:#000000;stroke-width:15;stroke-linecap:round;stroke-linejoin:round;stroke-miterlimit:10;stroke-dasharray:385, 30;stroke-dashoffset:0;stroke-opacity:1"
             id="path1712" /></g><g
           id="g1714"
           transform="translate(7.1802,73.2983)"><path
             d="m 0,0 31.083,-18.945 c 19.088,-11.634 43.076,-11.634 62.164,0 l 0.001,0.001 c 19.088,11.634 43.076,11.634 62.164,0 v -0.001 c 19.089,-11.634 43.077,-11.634 62.165,0 v 0.001 c 19.089,11.634 43.077,11.634 62.165,0 v -0.001 c 19.089,-11.634 43.077,-11.634 62.165,0 v 0.001 c 19.089,11.634 43.077,11.634 62.165,0 v -0.001 c 19.089,-11.634 43.077,-11.634 62.165,0 L 497.32,0 V -65.798 H 0 Z"
             style="fill:none;stroke:#000000;stroke-width:15;stroke-linecap:round;stroke-linejoin:round;stroke-miterlimit:10;stroke-dasharray:none;stroke-opacity:1"
             id="path1716" /></g></g></g></g></svg>
