<?xml version="1.0" encoding="UTF-8"?>
<svg version="1.1" xmlns="http://www.w3.org/2000/svg" width="2000" height="1791">
<path d="M0 0 C594.66 0 1189.32 0 1802 0 C1802 393.69 1802 787.38 1802 1193 C1207.34 1193 612.68 1193 0 1193 C0 799.31 0 405.62 0 0 Z M2 652 C2 829.87 2 1007.74 2 1191 C595.34 1191 1188.68 1191 1800 1191 C1800 1013.13 1800 835.26 1800 652 C1206.66 652 613.32 652 2 652 Z " fill="#F1592A" transform="translate(99,54)"/>
<path d="M0 0 C438.57 0 877.14 0 1329 0 C1329 77.22 1329 154.44 1329 234 C890.43 234 451.86 234 0 234 C0 156.78 0 79.56 0 0 Z M463 2 C463 77.9 463 153.8 463 232 C748.12 232 1033.24 232 1327 232 C1327 156.1 1327 80.2 1327 2 C1041.88 2 756.76 2 463 2 Z " fill="#F1592A" transform="translate(366,1503)"/>
<path d="M0 0 C28.05 0 56.1 0 85 0 C85 48.51 85 97.02 85 147 C121.96 147 158.92 147 197 147 C197 158.88 197 170.76 197 183 C160.04 183 123.08 183 85 183 C85 296.85 85 410.7 85 528 C56.95 528 28.9 528 0 528 C0 353.76 0 179.52 0 0 Z " fill="#FAFAFF" transform="translate(1069,119)"/>
<path d="M0 0 C28.38 0 56.76 0 86 0 C86 174.24 86 348.48 86 528 C57.62 528 29.24 528 0 528 C0 353.76 0 179.52 0 0 Z " fill="#FAFAFF" transform="translate(1529,119)"/>
<path d="M0 0 C23.43 0 46.86 0 71 0 C69.02 5.94 67.04 11.88 65 18 C62.27574005 34.34555969 64.56018275 50.09570448 74 64 C75.82035845 66.23424277 77.68364983 68.36328046 79.6796875 70.44140625 C81 72 81 72 81 74 C81.59167969 74.26683594 82.18335938 74.53367187 82.79296875 74.80859375 C85.03804375 76.02053689 86.49055853 77.29081898 88.3125 79.0625 C103.03832493 92.13708353 122.96561537 99.39837919 140.9375 106.6875 C183.43171806 123.95669924 226.37850184 147.17135701 246 191 C258.39510168 220.90358735 257.38444477 257.94248576 246 288 C244.68 290.97 243.36 293.94 242 297 C217.91 297 193.82 297 169 297 C170.10789824 294.2302544 171.22881849 291.46524036 172.40234375 288.72265625 C179.25633257 272.38121216 183.01832024 256.25098664 177 239 C162.72246084 204.47166549 117.36781168 189.04273819 85.7616272 175.11676025 C61.24229572 164.30615242 39.93681761 151.86246665 20 134 C18.96939453 133.09701172 18.96939453 133.09701172 17.91796875 132.17578125 C4.21646294 119.43691051 -3.72534622 101.89741405 -8 84 C-8.21398437 83.14792969 -8.42796875 82.29585938 -8.6484375 81.41796875 C-14.40243426 54.94124453 -10.92282849 24.5763641 0 0 Z " fill="#FAFAFF" transform="translate(159,350)"/>
<path d="M0 0 C1.49047058 1.29964908 2.96997626 2.61199468 4.4375 3.9375 C5.23929688 4.5871875 6.04109375 5.236875 6.8671875 5.90625 C12.0151783 10.20426101 16.20036329 14.89222112 20.1875 20.25 C20.62312256 20.82951416 21.05874512 21.40902832 21.50756836 22.00610352 C25.64552996 27.76602697 28.15547778 33.37345556 31.4375 39.9375 C31.7675 21.4575 32.0975 2.9775 32.4375 -16.0625 C39.6975 -16.0625 46.9575 -16.0625 54.4375 -16.0625 C54.52898053 21.36499899 54.59965697 58.7924779 54.64176132 96.22006637 C54.64676345 100.65045459 54.6519408 105.08084258 54.65722656 109.51123047 C54.6582758 110.39314761 54.65932505 111.27506474 54.66040608 112.18370664 C54.67775599 126.4165188 54.70926343 140.64926556 54.74611118 154.88203907 C54.78367203 169.51355144 54.80576765 184.14502984 54.81385398 198.77658844 C54.81931056 207.78675651 54.83646994 216.79673966 54.86916587 225.80685073 C54.89050133 232.00655214 54.89665764 238.20615959 54.89150551 244.40589494 C54.88897288 247.9694134 54.89252651 251.5326115 54.9143219 255.09607124 C55.10821511 288.48384517 51.21004274 322.22984757 29.4375 348.9375 C28.75042969 349.78828125 28.06335937 350.6390625 27.35546875 351.515625 C7.90922648 374.36057989 -22.00142349 384.05823918 -51.05859375 386.5859375 C-85.83613018 389.09069082 -127.55590361 386.85984755 -155.6875 363.40234375 C-177.18980819 344.68477168 -184.13961219 322.5988025 -186.5625 294.9375 C-178.6425 294.9375 -170.7225 294.9375 -162.5625 294.9375 C-162.19125 297.433125 -161.82 299.92875 -161.4375 302.5 C-158.2761448 321.26680563 -149.46027227 337.12040582 -134.109375 348.8046875 C-107.73182426 366.57399564 -73.2945607 369.51825418 -42.5625 363.9375 C-19.09087792 359.04071224 2.89210377 347.28279393 16.4375 326.9375 C28.31125176 306.74882679 31.95604053 285.31050607 31.73046875 262.21484375 C31.72485372 260.49036534 31.72059269 258.76588206 31.71760559 257.04139709 C31.70630652 252.56491208 31.67697365 248.08873243 31.64349365 243.61236572 C31.61246501 239.01961393 31.59903116 234.42681141 31.58398438 229.83398438 C31.552085 220.8683575 31.5010766 211.90295442 31.4375 202.9375 C30.83784424 203.95432861 30.23818848 204.97115723 29.62036133 206.01879883 C28.81609807 207.37331659 28.01164458 208.72772141 27.20703125 210.08203125 C26.81390747 210.74980591 26.42078369 211.41758057 26.01574707 212.10559082 C11.79880424 235.9757429 -11.18384167 253.66208411 -37.96484375 261.12890625 C-74.24110203 269.28220208 -111.56768033 265.96454212 -143.80859375 247.03125 C-172.51426714 228.8149059 -188.94566899 199.38737451 -196.5625 166.9375 C-206.73468898 121.17689636 -202.30616159 71.40099158 -177.5625 30.9375 C-174.52471688 26.35183884 -171.12289155 22.13059441 -167.5625 17.9375 C-166.50482422 16.63619141 -166.50482422 16.63619141 -165.42578125 15.30859375 C-126.36630809 -30.82634774 -47.24272453 -37.04007041 0 0 Z M-140.5625 21.9375 C-141.18640625 22.47761719 -141.8103125 23.01773438 -142.453125 23.57421875 C-166.58908315 45.9620117 -177.12673109 82.60382378 -178.5390625 114.47973633 C-179.32124076 148.2356167 -172.40899694 184.89159224 -149.5625 210.9375 C-148.96050781 211.68257812 -148.35851562 212.42765625 -147.73828125 213.1953125 C-132.81801046 231.14968448 -110.27405324 241.94784406 -87.3046875 244.65625 C-58.94853094 246.78740164 -31.79113828 241.71953757 -9.5625 222.9375 C-8.76070312 222.28136719 -7.95890625 221.62523437 -7.1328125 220.94921875 C16.5849417 200.74110108 28.49398574 169.35462239 31.4375 138.9375 C31.55869552 136.22907277 31.64636332 133.5445354 31.67578125 130.8359375 C31.69054001 129.71017807 31.69054001 129.71017807 31.70559692 128.56167603 C31.87769238 112.02579784 31.86678527 96.00234707 27.4375 79.9375 C27.19612305 79.05755371 26.95474609 78.17760742 26.70605469 77.27099609 C18.58883668 48.74841935 2.89403646 24.06533851 -23.29443359 8.93701172 C-61.28296371 -12.18422913 -108.33999772 -6.53939293 -140.5625 21.9375 Z " fill="#FFFFFF" transform="translate(1146.5625,853.0625)"/>
<path d="M0 0 C3.90703081 0.17519448 7.81592768 0.25180937 11.72576904 0.33721924 C19.37216036 0.51855393 27.00928333 0.8078564 34.64959717 1.16729736 C33.20509162 5.63170772 31.47673145 9.70689004 29.39959717 13.91729736 C9.01477884 56.75101688 6.86251944 109.94302 14.64959717 156.16729736 C14.89903076 157.69266113 14.89903076 157.69266113 15.15350342 159.24884033 C21.43805243 196.5895357 35.24194948 233.4247295 57.64959717 264.16729736 C58.07708252 264.75559326 58.50456787 265.34388916 58.94500732 265.95001221 C67.72951881 277.89161007 77.6323035 288.44886863 89.64959717 297.16729736 C89.64959717 297.82729736 89.64959717 298.48729736 89.64959717 299.16729736 C72.95132154 299.44784742 56.25381217 299.65933489 39.55374813 299.78904343 C31.7991697 299.85087609 24.0460569 299.93513833 16.29241943 300.0725708 C9.53275892 300.19232782 2.7741597 300.26962842 -3.98653215 300.2963593 C-7.56569779 300.31198329 -11.14182803 300.34857415 -14.72001839 300.43605804 C-18.71934554 300.53304165 -22.71342881 300.53516905 -26.71392822 300.52960205 C-27.89500656 300.57274536 -29.0760849 300.61588867 -30.29295349 300.66033936 C-33.70381155 300.60895769 -36.18151058 300.44225613 -39.35040283 299.16729736 C-42.54226999 295.51614243 -44.44724768 291.59982715 -46.35040283 287.16729736 C-46.81825227 286.1642091 -47.2861017 285.16112083 -47.7681284 284.12763596 C-49.04102992 281.37704755 -50.20650093 278.59887754 -51.35040283 275.79229736 C-51.77410156 274.75991943 -52.19780029 273.7275415 -52.63433838 272.66387939 C-81.54710155 200.96460331 -82.72724884 111.24301597 -52.90264893 39.69415283 C-51.45498453 36.38896333 -49.955921 33.11648641 -48.41290283 29.85479736 C-47.97188232 28.92054932 -47.53086182 27.98630127 -47.07647705 27.02374268 C-46.13767656 25.12884888 -45.13908218 23.2626911 -44.09039307 21.42633057 C-42.69763475 18.81766903 -41.70913527 16.45101035 -40.70611572 13.69537354 C-33.30925858 -3.92000147 -16.26531782 -0.80666127 0 0 Z " fill="#FAFAFF" transform="translate(1371.3504028320313,347.83270263671875)"/>
<path d="M0 0 C8.48408311 -0.23221558 16.96682887 -0.40962888 25.45330906 -0.51812172 C29.39457876 -0.57020868 33.33366746 -0.64077866 37.27368164 -0.75439453 C41.07995247 -0.86346047 44.8841336 -0.92292007 48.69184685 -0.94877243 C50.14055223 -0.96718054 51.58914925 -1.00313444 53.03695869 -1.05730057 C64.36183483 -1.46394566 64.36183483 -1.46394566 68.40136719 2.14598083 C70.21023548 4.69416281 71.63182489 7.19497612 73 10 C73.84093423 11.39837381 74.6904676 12.79167733 75.5546875 14.17578125 C89.59879031 38.82618458 98.55075117 65.2124742 104 93 C104.15452637 93.7842334 104.30905273 94.5684668 104.46826172 95.37646484 C106.63867534 106.83400269 107.48060232 118.37687473 108.1875 130 C108.23047211 130.70460358 108.27344421 131.40920715 108.31771851 132.13516235 C111.79121099 190.55577873 101.18045431 245.63909138 75 298 C32.1 298 -10.8 298 -55 298 C-55 297.34 -55 296.68 -55 296 C-53.3828125 294.58984375 -53.3828125 294.58984375 -51.125 292.9375 C-41.84254856 285.88109099 -34.06503944 278.28652091 -27 269 C-26.20851563 267.96230469 -25.41703125 266.92460938 -24.6015625 265.85546875 C-17.55514649 256.40711966 -11.59527087 246.36304348 -6 236 C-5.5771875 235.21866699 -5.154375 234.43733398 -4.71875 233.63232422 C14.14823747 198.08721462 22.86611097 157.00738463 24 117 C24.02191406 116.29198242 24.04382812 115.58396484 24.06640625 114.85449219 C25.02567291 78.73810254 19.88299617 41.76756159 3.96386719 9.06616211 C2.56852438 6.07508152 1.29138048 3.03737959 0 0 Z " fill="#FAFAFF" transform="translate(1743,349)"/>
<path d="M0 0 C29.37 0 58.74 0 89 0 C98.07395983 24.19722622 107.13848285 48.39626251 116.12610626 72.62542343 C117.53127758 76.41300167 118.93728209 80.20027058 120.34326172 83.98754883 C120.62537254 84.74747603 120.90748337 85.50740324 121.19814301 86.29035854 C121.76444011 87.81580185 122.33073953 89.3412443 122.89704132 90.86668587 C123.72982375 93.11002974 124.56252434 95.35340397 125.39520264 97.5967865 C129.79951544 109.46244986 134.20983468 121.32587028 138.625 133.1875 C138.94050812 134.03521973 139.25601624 134.88293945 139.58108521 135.75634766 C141.72040937 141.50434872 143.86013197 147.25220139 146 153 C147.20316211 156.23175702 148.40629118 159.46352634 149.609375 162.6953125 C149.91513962 163.5166568 150.22090424 164.3380011 150.53593445 165.18423462 C152.11493397 169.42610116 153.69335156 173.66818305 155.27075195 177.91064453 C155.94221279 179.71647406 156.61368114 181.52230078 157.28515625 183.328125 C157.63487991 184.26868744 157.98460358 185.20924988 158.34492493 186.17831421 C160.90800654 193.06948105 163.47588512 199.9588492 166.04547119 206.84759235 C168.41153813 213.19117453 170.7751695 219.53566159 173.13746643 225.88064861 C174.61550638 229.85022681 176.09468962 233.81937069 177.57659912 237.7875061 C178.98351567 241.55491352 180.38737565 245.32344656 181.78907967 249.09279633 C182.30984433 250.49156494 182.83169522 251.88992973 183.35473442 253.28784943 C184.08167287 255.23125067 184.80457099 257.17611243 185.52661133 259.12133789 C185.93357742 260.21297745 186.34054352 261.304617 186.75984192 262.42933655 C192.9412059 280.22672125 191.01709679 275.96238705 181 298 C158.89 298 136.78 298 114 298 C111.01833152 290.84399565 108.06762391 283.71938835 105.3125 276.48046875 C104.97760056 275.60497879 104.64270111 274.72948883 104.2976532 273.82746887 C103.19672031 270.94813133 102.09834719 268.06782475 101 265.1875 C100.20824326 263.11517551 99.41632849 261.04291138 98.62426758 258.97070312 C96.51254509 253.44461359 94.4030367 247.91768141 92.29400635 242.39056396 C90.15948008 236.79766417 88.02298966 231.20551483 85.88671875 225.61328125 C81.92768803 215.24849779 77.97056477 204.88298721 74.01425171 194.51716614 C69.61371334 182.98752326 65.21168174 171.45845075 60.80947876 159.92944336 C58.62292177 154.2029867 56.43646605 148.47649138 54.25 142.75 C53.37500048 140.45833315 52.50000048 138.16666648 51.625 135.875 C46.375 122.12500001 46.375 122.12500001 45.06271362 118.68804932 C44.18701058 116.39454814 43.3112985 114.10105043 42.43557739 111.80755615 C40.25875996 106.10648561 38.08209576 100.40535666 35.90576172 94.70410156 C31.84126097 84.05697538 27.77528929 73.41041694 23.70404053 62.76586914 C21.80112905 57.7905391 19.89923638 52.81481972 17.99731445 47.83911133 C17.09880638 45.48917944 16.19989607 43.13940129 15.30053711 40.78979492 C14.04565994 37.5113063 12.79223043 34.23226727 11.5390625 30.953125 C11.18256622 30.02288513 10.82606995 29.09264526 10.45877075 28.13421631 C6.88891738 18.78510961 3.46057598 9.39299196 0 0 Z " fill="#FAFAFF" transform="translate(608,349)"/>
<path d="M0 0 C29.04 0 58.08 0 88 0 C102.84134473 38.81582468 102.84134473 38.81582468 108.32736206 53.75512695 C110.11728811 58.62880931 111.91486738 63.49967308 113.7109375 68.37109375 C114.25587105 69.84997574 114.25587105 69.84997574 114.81181335 71.35873413 C118.33348675 80.9133688 121.88244499 90.45774534 125.4375 100 C126.75277663 103.53118579 128.06786488 107.06244168 129.3828125 110.59375 C129.73277283 111.53356216 130.08273315 112.47337433 130.44329834 113.44166565 C135.05918148 125.84078888 139.66273471 138.24449375 144.26804733 150.64754581 C152.58899518 173.05736827 160.91001561 195.46717738 169.24972534 217.87002563 C170.41727597 221.0081423 171.58289473 224.14697142 172.74829102 227.28588867 C175.98786872 236.00091889 179.25121566 244.70290393 182.64453125 253.359375 C183.18374964 254.74337917 183.72289674 256.12741113 184.26196289 257.51147461 C185.20712612 259.93636464 186.17012301 262.35101706 187.14624023 264.76391602 C187.54657471 265.78670654 187.94690918 266.80949707 188.359375 267.86328125 C188.70452148 268.72219971 189.04966797 269.58111816 189.40527344 270.46606445 C191.63613784 279.97104869 183.41206053 290.7967611 180 298 C157.89 298 135.78 298 113 298 C103.82110364 275.0527591 103.82110364 275.0527591 100.80078125 267.04296875 C100.44788528 266.11207428 100.09498932 265.18117981 99.73139954 264.22207642 C98.97984852 262.23913347 98.2290781 260.25589451 97.47906494 258.27236938 C95.41058477 252.80247147 93.3356112 247.33503512 91.26171875 241.8671875 C90.83016479 240.72891006 90.39861084 239.59063263 89.95397949 238.41786194 C85.19738457 225.87520566 80.41248462 213.34339141 75.625 200.8125 C74.74323822 198.50415315 73.86148369 196.19580353 72.97973633 193.88745117 C71.20572353 189.24342954 69.43152187 184.59948011 67.65722656 179.95556641 C63.70665199 169.61516672 59.75866209 159.27378019 55.81048584 148.9324646 C53.62376392 143.20493566 51.4368734 137.4774711 49.25 131.75 C48.37499919 129.45833364 47.49999919 127.16666697 46.625 124.875 C46.191875 123.740625 45.75875 122.60625 45.3125 121.4375 C43.34375 116.28125 43.34375 116.28125 41.375 111.125 C40.94197067 109.99087677 40.50894135 108.85675354 40.06278992 107.68826294 C39.1868203 105.39405437 38.31085392 103.09984457 37.43489075 100.80563354 C35.26225226 95.11534786 33.08955961 89.42508288 30.91674805 83.73486328 C26.80188388 72.95856578 22.6876031 62.18204638 18.57510376 51.40484619 C16.86249906 46.91681367 15.14963648 42.42887959 13.43671608 37.94096756 C12.26537166 34.87194273 11.09422479 31.80284274 9.92333984 28.73364258 C8.63284436 25.35093771 7.34186463 21.96841802 6.05078125 18.5859375 C5.66847855 17.58343964 5.28617584 16.58094177 4.89228821 15.54806519 C4.53893906 14.62260895 4.1855899 13.69715271 3.8215332 12.74365234 C3.51625198 11.94357758 3.21097076 11.14350281 2.8964386 10.31918335 C2.25679891 8.66436647 1.58275439 7.02267916 0.88615417 5.39102173 C0 3 0 3 0 0 Z " fill="#FAFAFF" transform="translate(413,349)"/>
<path d="M0 0 C28.38 0 56.76 0 86 0 C86 98.01 86 196.02 86 297 C57.62 297 29.24 297 0 297 C0 198.99 0 100.98 0 0 Z " fill="#FAFAFF" transform="translate(875,350)"/>
<path d="M0 0 C31.26901415 27.3721122 45.72735783 68.03844616 48.6875 108.66015625 C51.4535365 152.61027598 41.91575217 198.62859967 12.6875 232.6953125 C10.49918681 235.17195074 8.2640129 237.59264178 6 240 C5.19369141 240.90298828 5.19369141 240.90298828 4.37109375 241.82421875 C-15.8409497 263.55596471 -47.63060112 274.72966018 -76.61499023 276.12597656 C-113.45147726 277.19654861 -147.21826576 268.28002116 -174.875 243.0625 C-184.59834565 233.88699018 -192.45370616 223.67466573 -199 212 C-199.32709961 211.42362793 -199.65419922 210.84725586 -199.99121094 210.25341797 C-212.86412272 187.25172243 -220.04169318 159.9186944 -220.203125 133.546875 C-220.21013931 132.77271744 -220.21715363 131.99855988 -220.22438049 131.20094299 C-220.24177517 128.71723534 -220.24823249 126.23376633 -220.25 123.75 C-220.25067474 122.90029633 -220.25134949 122.05059265 -220.25204468 121.17514038 C-220.23573183 108.24393002 -219.80828354 95.67258318 -217 83 C-216.82307617 82.1965918 -216.64615234 81.39318359 -216.46386719 80.56542969 C-207.60061134 41.69875164 -187.49064968 9.07173421 -153.890625 -13.046875 C-106.73931135 -41.84740712 -41.6231185 -35.09505278 0 0 Z M-147 9 C-147.93328125 9.69996094 -148.8665625 10.39992188 -149.828125 11.12109375 C-176.98113742 32.39600991 -191.56027357 65.57564032 -196.30859375 99.140625 C-198.57860098 118.63427581 -198.65177933 139.89134315 -194 159 C-193.80132324 159.83208984 -193.60264648 160.66417969 -193.39794922 161.52148438 C-187.92388933 183.77856082 -178.81355133 203.39321548 -164 221 C-163.5565625 221.58910156 -163.113125 222.17820312 -162.65625 222.78515625 C-148.13390408 241.51366943 -122.57484702 252.44841358 -99.8125 255.6875 C-69.5961495 258.27432782 -41.5778583 251.17838288 -18.08203125 231.64453125 C-17.05183473 230.76635648 -16.02421015 229.88514934 -15 229 C-14.24074219 228.34386719 -13.48148438 227.68773437 -12.69921875 227.01171875 C14.46044499 201.5937569 24.5036439 161.9010385 26.18359375 126.0859375 C26.85449454 89.22585888 15.86079311 49.39734525 -9.91992188 22.12280273 C-11.26645025 20.73530731 -12.63283465 19.36716535 -14 18 C-14.72832031 17.27167969 -15.45664062 16.54335938 -16.20703125 15.79296875 C-37.05269881 -3.81510816 -63.80574847 -10.84166004 -91.8515625 -10.30859375 C-111.99604563 -9.55121147 -130.89636661 -3.16870602 -147 9 Z " fill="#FFFFFF" transform="translate(833,860)"/>
<path d="M0 0 C0.65500488 0.16097168 1.31000977 0.32194336 1.98486328 0.48779297 C32.64448701 8.32779992 59.94195393 27.90826278 76.50390625 54.984375 C78.81112373 58.91790528 80.9322401 62.93651698 83 67 C83.31807617 67.61311035 83.63615234 68.2262207 83.96386719 68.85791016 C92.56851265 85.5951594 97.14518132 103.46691995 100 122 C100.1045752 122.65814697 100.20915039 123.31629395 100.31689453 123.99438477 C101.42184914 132.16096788 101.24396032 140.461462 101.25 148.6875 C101.25067474 149.51191589 101.25134949 150.33633179 101.25204468 151.18572998 C101.19481439 195.26374685 88.16704391 237.83295609 56.4296875 269.5703125 C29.03574441 294.90326927 -5.4074223 304.3593467 -42.07617188 303.15234375 C-73.97753798 301.49014832 -101.95722354 289.03212837 -125 267 C-125.67289063 266.39027344 -126.34578125 265.78054688 -127.0390625 265.15234375 C-152.08151068 241.65634157 -162.74941976 206.03535073 -167 173 C-167.13277344 171.98164062 -167.26554688 170.96328125 -167.40234375 169.9140625 C-171.74677302 128.37417712 -163.43422862 81.91230482 -138 48 C-137.40058594 47.18015625 -136.80117187 46.3603125 -136.18359375 45.515625 C-116.47701953 19.67903082 -88.03882905 2.56202236 -55.80004883 -2.27709961 C-37.52293461 -4.49324412 -17.93115612 -4.50403448 0 0 Z M-103 43 C-103.84175781 43.75925781 -104.68351562 44.51851562 -105.55078125 45.30078125 C-132.45257335 70.86375943 -143.76068658 109.07353378 -145.203125 145.265625 C-145.43028045 164.5738386 -142.82965787 183.58111674 -137 202 C-136.78504883 202.68465332 -136.57009766 203.36930664 -136.34863281 204.07470703 C-126.89354823 233.35154966 -107.49269478 258.42651677 -80.125 272.8125 C-54.52179496 284.95540709 -24.94595022 286.71923092 1.9140625 277.5390625 C30.92686552 266.9775673 51.28049507 245.28168959 64.2578125 217.8203125 C68.2612438 209.11663646 71.30122198 200.39588787 73.6875 191.125 C73.89012451 190.34737305 74.09274902 189.56974609 74.30151367 188.76855469 C77.41243444 176.08606921 78.38597333 163.33908653 78.3125 150.3125 C78.31034485 149.61756439 78.3081897 148.92262878 78.30596924 148.20663452 C78.13740256 114.14495983 68.69544501 79.16039844 46 53 C44.98679687 51.77023437 44.98679687 51.77023437 43.953125 50.515625 C27.48434588 31.16180428 4.06999433 19.89570174 -21 17 C-51.78258477 14.76439329 -79.81067183 22.05593205 -103 43 Z " fill="#FFFFFF" transform="translate(324,833)"/>
<path d="M0 0 C8.91 0 17.82 0 27 0 C28.33289062 3.27164063 29.66578125 6.54328125 31.0390625 9.9140625 C31.50199203 11.05033585 31.96492157 12.18660919 32.44187927 13.35731506 C34.83379235 19.22833766 37.22565147 25.09938224 39.61743164 30.97045898 C40.64468668 33.49202773 41.67194975 36.01359319 42.69921875 38.53515625 C42.95911402 39.17310308 43.21900928 39.81104992 43.48678017 40.46832848 C47.26761752 49.74878915 51.04951967 59.0288153 54.83203125 68.30859375 C70.76110573 107.39046457 70.76110573 107.39046457 78.625 126.8125 C84.24695746 140.69727231 89.89922053 154.56953276 95.5625 168.4375 C95.97616821 169.45049164 96.38983643 170.46348328 96.81604004 171.50717163 C97.23156128 172.52469513 97.64708252 173.54221863 98.07519531 174.59057617 C104.19652319 189.58045924 110.31378715 204.57199093 116.42453003 219.56619263 C117.37903634 221.90812605 118.33372301 224.24998598 119.28860474 226.59176636 C120.62777943 229.87608615 121.96631201 233.16066696 123.3046875 236.4453125 C123.69143143 237.39347336 124.07817535 238.34163422 124.47663879 239.31852722 C127.68603223 247.19843326 130.84618807 255.09772951 134 263 C142.35334417 241.2336583 150.62016987 219.43683259 158.7915535 197.60156631 C160.23891411 193.73491815 161.68776157 189.86882715 163.13647461 186.00268555 C165.55656915 179.54383676 167.97605268 173.08475949 170.39501953 166.62548828 C175.83610801 152.09661374 181.28039468 137.56893818 186.72665024 123.04199982 C187.28333171 121.55713818 187.83999526 120.07226983 188.39664078 118.58739471 C199.69869991 88.43887736 211.04722774 58.30794883 222.40863228 28.18175316 C225.94971846 18.79179238 229.48162125 9.39849195 233 0 C241.58 0 250.16 0 259 0 C257.04448891 6.51837031 255.04910891 12.7485646 252.54296875 19.03515625 C252.04034012 20.31147919 252.04034012 20.31147919 251.52755737 21.61358643 C250.80016628 23.45989901 250.07104391 25.30553028 249.34036255 27.15054321 C247.3140816 32.26862303 245.3022469 37.3923827 243.2890625 42.515625 C242.86152176 43.60285355 242.43398102 44.69008209 241.9934845 45.81025696 C236.96032551 58.62263959 232.01133128 71.46736695 227.0625 84.3125 C225.19295822 89.16285676 223.32308442 94.01308549 221.453125 98.86328125 C220.99410797 100.0539772 220.53509094 101.24467316 220.06216431 102.47145081 C215.49338414 114.31990442 210.9057278 126.16100589 206.3125 138 C205.92603302 138.9961734 205.53956604 139.9923468 205.14138794 141.01870728 C203.20341839 146.01387958 201.26512395 151.00892573 199.32666016 156.00390625 C195.77935422 165.14500491 192.23508054 174.28727941 188.69052124 183.42944336 C186.71046629 188.53634164 184.73022385 193.64316721 182.75 198.75 C181.95833243 200.79166632 181.16666576 202.83333298 180.375 204.875 C175.625 217.12499999 175.625 217.12499999 174.43762207 220.18716431 C173.64552974 222.22994267 172.85345618 224.27272833 172.06140137 226.31552124 C170.08890095 231.40273861 168.11608002 236.48983121 166.14257812 241.57666016 C162.07735702 252.05611878 158.01831794 262.53791938 153.96875 273.0234375 C113.41793608 377.99220882 113.41793608 377.99220882 90.875 389.375 C72.14513353 397.30170785 50.91623572 396.13102787 31 396 C31 389.4 31 382.8 31 376 C32.6190625 375.90203125 34.238125 375.8040625 35.90625 375.703125 C57.5052598 374.27161492 76.20900601 372.17884296 92 356 C95.27746076 352.22135981 97.6317738 348.23324832 99.828125 343.765625 C100.17296936 343.06898743 100.51781372 342.37234985 100.87310791 341.65460205 C104.3131953 334.57067417 107.18611846 327.29953019 109.93798828 319.92578125 C110.75610023 317.73365445 111.5859591 315.54626051 112.41796875 313.359375 C113.49294751 310.53272709 114.53251372 307.69635074 115.55224609 304.84936523 C116.43089019 302.42342405 117.37565746 300.24322948 118.52978516 297.91821289 C121.12228837 292.28884656 121.28067892 288.57234243 119.22106934 282.8475647 C117.58171222 278.80862509 115.73585185 274.87799292 113.875 270.9375 C113.08032902 269.17902309 112.29005143 267.41855496 111.50390625 265.65625 C109.8535462 261.96204762 108.18704911 258.27575588 106.51074219 254.59326172 C102.86572187 246.53345979 99.4946117 238.36061839 96.1133728 230.18759155 C94.24182176 225.66981929 92.35333832 221.15914768 90.46484375 216.6484375 C90.09239029 215.75833481 89.71993683 214.86823212 89.3361969 213.95115662 C85.44560081 204.6613206 81.50821432 195.39153224 77.5625 186.125 C71.49893625 171.88419344 65.45605772 157.63489287 59.4375 143.375 C59.03733673 142.42691467 58.63717346 141.47882935 58.22488403 140.50201416 C52.16170809 126.13508637 46.10827781 111.76406044 40.06054688 97.390625 C36.48344772 88.89031103 32.8998815 80.39276753 29.30859375 71.8984375 C14.45536075 36.76640699 14.45536075 36.76640699 7.31204224 19.6987915 C6.65023852 18.11881166 5.98723015 16.53933582 5.32296753 14.96038818 C4.41632155 12.80443052 3.51416685 10.64665099 2.61328125 8.48828125 C2.10579346 7.27696533 1.59830566 6.06564941 1.07543945 4.81762695 C0 2 0 2 0 0 Z " fill="#FFFFFF" transform="translate(1257,837)"/>
<path d="M0 0 C7.59 0 15.18 0 23 0 C23 133.98 23 267.96 23 406 C15.41 406 7.82 406 0 406 C0 272.02 0 138.04 0 0 Z " fill="#FFFFFF" transform="translate(508,723)"/>
<path d="M0 0 C11.55 0 23.1 0 35 0 C34.49585518 2.52072409 33.98994523 5.04223003 33.39453125 7.54296875 C31.49314519 16.18215239 31.90630151 23.02228188 36.5625 30.6875 C45.28187729 42.5491827 59.95006603 47.87442566 73.0625 53.5 C92.15812897 61.72990764 111.98789272 72.52875627 120.16015625 92.890625 C122.16757984 98.61789804 123.61560485 103.94577636 124 110 C124.0515625 110.78246094 124.103125 111.56492187 124.15625 112.37109375 C124.36194111 118.13901525 123.71481806 123.59321555 122.6875 129.25 C122.56987305 129.91128906 122.45224609 130.57257813 122.33105469 131.25390625 C121.40382402 135.98728836 119.96696083 139.41042473 118 144 C106.12 144 94.24 144 82 144 C83.65 139.05 85.3 134.1 87 129 C87.97645453 121.51384858 85.90973439 114.9034766 81.41015625 108.8671875 C71.18114456 97.83802057 56.16326817 92.05671906 42.7175293 86 C24.62000865 77.81725968 7.06202354 68.22331734 -1.3125 49.1875 C-7.38901449 32.31993393 -4.82902125 16.90157438 0 0 Z " fill="#FFFFFF" transform="translate(416,1548)"/>
<path d="M0 0 C10.56 0 21.12 0 32 0 C32 24.75 32 49.5 32 75 C41.9 75 51.8 75 62 75 C69.9817601 81.34447598 69.9817601 81.34447598 72.92333984 86.25146484 C74.56828056 88.92290824 76.59708074 91.23779011 78.625 93.625 C79.69621094 94.95917969 79.69621094 94.95917969 80.7890625 96.3203125 C83.1093495 99.13253315 85.53071134 101.81797263 88 104.5 C92.11057783 108.96636201 95.96434593 113.58383305 99.77734375 118.3046875 C102.69969149 121.84848353 105.76686842 125.24535554 108.859375 128.640625 C111.44721283 131.49291341 113.973899 134.3949218 116.4921875 137.30859375 C117.98351619 139.03080564 117.98351619 139.03080564 119.6953125 140.59765625 C121 142 121 142 121 144 C115.07799762 144.29891684 109.16046773 144.51538244 103.23266602 144.65917969 C101.22147076 144.71916242 99.21079081 144.80078792 97.20141602 144.90527344 C79.60867867 145.79648735 79.60867867 145.79648735 74.31469727 141.46435547 C71.45240921 138.59910242 69.227698 135.37851686 67 132 C65.53815883 130.19416948 64.06160845 128.40001474 62.5625 126.625 C61.83933594 125.7278125 61.11617187 124.830625 60.37109375 123.90625 C57.67366543 120.60001167 54.90851802 117.35874728 52.125 114.125 C51.10935816 112.9440249 50.09373322 111.76303527 49.078125 110.58203125 C48.57216797 109.99373535 48.06621094 109.40543945 47.54492188 108.79931641 C44.97934669 105.81128084 42.42449738 102.814259 39.875 99.8125 C39.41367676 99.27189941 38.95235352 98.73129883 38.47705078 98.17431641 C36.50136253 95.84468476 34.69733619 93.54600429 33 91 C32.67 108.49 32.34 125.98 32 144 C21.44 144 10.88 144 0 144 C0 96.48 0 48.96 0 0 Z " fill="#FFFFFF" transform="translate(583,1548)"/>
<path d="M0 0 C0.33 0 0.66 0 1 0 C1.09824341 54.5520122 1.19499207 109.10402686 1.28601074 163.65605164 C1.28742048 164.50078775 1.28883022 165.34552387 1.29028267 166.21585805 C1.32111783 184.69678092 1.35175042 203.17770411 1.38218227 221.65862765 C1.39716682 230.75785144 1.41219487 239.85707515 1.42724609 248.95629883 C1.42874094 249.86045713 1.43023578 250.76461543 1.43177592 251.69617247 C1.47647661 278.72201337 1.52374497 305.74784816 1.57275391 332.77368164 C2.08497611 618.84978247 2 904.92253004 2 1191 C595.34 1191 1188.68 1191 1800 1191 C1800 1013.13 1800 835.26 1800 652 C1800.12668745 538.91561498 1800.25849389 425.83158801 1800.46356201 312.74737549 C1800.50194744 291.48368658 1800.53759869 270.21999329 1800.57275391 248.95629883 C1800.57424796 248.05306698 1800.57574202 247.14983513 1800.57728135 246.21923262 C1800.59231939 237.12673097 1800.60731926 228.03422927 1800.62229155 218.94172751 C1800.65263803 200.51316852 1800.68323477 182.08460995 1800.71398926 163.65605164 C1800.71539475 162.81367215 1800.71680024 161.97129265 1800.71824832 161.10338651 C1800.80787533 107.40225019 1800.90328897 53.70112398 1801 0 C1801.33 0 1801.66 0 1802 0 C1802 393.69 1802 787.38 1802 1193 C1207.34 1193 612.68 1193 0 1193 C0 799.31 0 405.62 0 0 Z " fill="#000000" transform="translate(99,54)"/>
<path d="M0 0 C438.57 0 877.14 0 1329 0 C1329 77.22 1329 154.44 1329 234 C890.43 234 451.86 234 0 234 C0 156.78 0 79.56 0 0 Z M2 2 C2 77.9 2 153.8 2 232 C439.25 232 876.5 232 1327 232 C1327 156.1 1327 80.2 1327 2 C889.75 2 452.5 2 2 2 Z " fill="#000000" transform="translate(366,1503)"/>
<path d="M0 0 C2.22458123 2.22458123 4.175489 4.54648533 6.0625 7.0625 C6.7225 6.175625 7.3825 5.28875 8.0625 4.375 C12.73703676 -1.21067528 18.91332606 -4.6483047 26.0625 -5.9375 C36.17044051 -6.68034077 45.38373803 -6.25429378 53.5 0.3125 C58.97795196 5.54747828 60.89562796 11.69852407 61.18275452 19.20735168 C61.18053391 20.38649643 61.17831329 21.56564117 61.17602539 22.78051758 C61.17617142 23.43473694 61.17631744 24.0889563 61.1764679 24.76300049 C61.17577494 26.91104526 61.16801164 29.05900175 61.16015625 31.20703125 C61.15828988 32.70204114 61.15686701 34.19705165 61.15586853 35.69206238 C61.15206064 39.61621811 61.14224518 43.5403365 61.13116455 47.46447754 C61.12091321 51.47305801 61.11636294 55.48164455 61.11132812 59.49023438 C61.10062129 67.34767525 61.08303856 75.20507867 61.0625 83.0625 C54.7925 83.0625 48.5225 83.0625 42.0625 83.0625 C42.04791748 81.23146729 42.03333496 79.40043457 42.01831055 77.51391602 C41.96647029 71.43491944 41.90113458 65.35618237 41.82678509 59.277421 C41.78223405 55.59520763 41.74294545 51.91310101 41.71606445 48.23071289 C41.6898776 44.6708109 41.64936971 41.11132313 41.59931374 37.55167961 C41.57473744 35.54623205 41.56464022 33.54062371 41.55485535 31.53504944 C41.40968354 21.45818925 41.40968354 21.45818925 38.0625 12.0625 C33.22721305 9.04044566 26.62046978 9.53238068 21.0625 10.0625 C16.31853177 11.70132539 13.75277336 13.83492758 11.0625 18.0625 C8.51887818 24.72073674 8.71458998 31.3749165 8.6484375 38.43359375 C8.62907135 39.71105972 8.6097052 40.9885257 8.5897522 42.30470276 C8.54026994 45.67970531 8.49892928 49.05460387 8.46160889 52.42974854 C8.42140258 55.88229965 8.37038663 59.33468977 8.3203125 62.78710938 C8.22446748 69.54547763 8.14036331 76.30390163 8.0625 83.0625 C1.7925 83.0625 -4.4775 83.0625 -10.9375 83.0625 C-10.95208252 81.22623047 -10.96666504 79.38996094 -10.98168945 77.49804688 C-11.03349395 71.40706892 -11.09882046 65.31635118 -11.17321491 59.22560883 C-11.2177983 55.53551958 -11.25708012 51.84553767 -11.28393555 48.15527344 C-11.3100897 44.58889148 -11.35057546 41.0229253 -11.40068626 37.45680237 C-11.42530439 35.44521527 -11.43536836 33.43346691 -11.44514465 31.42175293 C-11.55333109 24.64071173 -11.85963397 19.16561896 -14.9375 13.0625 C-19.09040713 9.82120663 -23.29627419 9.53040504 -28.41015625 9.72265625 C-33.42153104 10.39651963 -37.25431007 12.01922466 -40.5078125 15.96875 C-43.94803346 21.23720268 -45.04543076 25.46031476 -45.14282227 31.74902344 C-45.16276749 32.88990417 -45.18271271 34.03078491 -45.20326233 35.20623779 C-45.21997482 36.43239807 -45.23668732 37.65855835 -45.25390625 38.921875 C-45.27468735 40.18138977 -45.29546844 41.44090454 -45.31687927 42.73858643 C-45.37116302 46.07908871 -45.42142069 49.41960222 -45.46972656 52.76019287 C-45.52005704 56.17221393 -45.5756827 59.58414823 -45.63085938 62.99609375 C-45.73795117 69.68482876 -45.83924576 76.37362957 -45.9375 83.0625 C-52.2075 83.0625 -58.4775 83.0625 -64.9375 83.0625 C-64.9375 54.3525 -64.9375 25.6425 -64.9375 -3.9375 C-58.9975 -3.9375 -53.0575 -3.9375 -46.9375 -3.9375 C-46.6075 -0.3075 -46.2775 3.3225 -45.9375 7.0625 C-44.9475 5.825 -43.9575 4.5875 -42.9375 3.3125 C-31.98349791 -9.24127522 -13.3145473 -8.78193545 0 0 Z " fill="#FFFFFF" transform="translate(277.9375,1350.9375)"/>
<path d="M0 0 C5.19505853 4.42917957 5.19505853 4.42917957 6.63671875 7.3125 C6.96671875 4.0125 7.29671875 0.7125 7.63671875 -2.6875 C13.90671875 -2.6875 20.17671875 -2.6875 26.63671875 -2.6875 C26.70467917 8.85705789 26.75964115 20.40148143 26.79215527 31.94619465 C26.80776573 37.30771165 26.82891917 42.66908387 26.86303711 48.03051758 C26.89579584 53.21118263 26.91360645 58.39170902 26.92135048 63.57246971 C26.92686446 65.54228076 26.93763144 67.51208481 26.95390892 69.48183632 C27.16597269 96.2239136 27.16597269 96.2239136 17.63671875 107.3125 C8.25845263 116.52623514 -4.37854241 118.56859808 -17.03710938 118.5612793 C-28.78588531 118.37519454 -38.20787696 115.62853098 -47.11328125 107.9375 C-51.92654077 102.32203057 -53.28322642 98.87288384 -54.36328125 91.3125 C-48.09328125 91.3125 -41.82328125 91.3125 -35.36328125 91.3125 C-34.37328125 93.2925 -33.38328125 95.2725 -32.36328125 97.3125 C-28.50881043 101.63978591 -24.85903327 103.15267352 -19.19140625 103.515625 C-8.27559121 103.86623191 -8.27559121 103.86623191 1.15625 98.98828125 C6.50424133 93.11627925 6.92726868 86.95092011 6.76171875 79.4375 C6.75269531 78.65375 6.74367188 77.87 6.734375 77.0625 C6.71099938 75.14569945 6.67513528 73.22905809 6.63671875 71.3125 C5.85296875 72.364375 5.06921875 73.41625 4.26171875 74.5 C-0.14363557 79.68338826 -6.00926847 82.19449574 -12.36328125 84.3125 C-23.82598756 85.1484898 -34.22688222 83.6693193 -43.36328125 76.3125 C-49.3741485 70.75299824 -53.04564331 65.15587472 -55.36328125 57.3125 C-55.58757813 56.55582031 -55.811875 55.79914063 -56.04296875 55.01953125 C-59.56148347 40.63217998 -57.83420715 25.68851107 -50.85546875 12.66015625 C-45.35174459 4.00115567 -36.79956278 -1.77630615 -26.85546875 -4.33203125 C-17.69148914 -5.63911925 -7.77176982 -5.54942903 0 0 Z M-30.05078125 15.5625 C-38.12038198 25.15878195 -39.24388524 35.0803602 -38.36328125 47.3125 C-37.25908312 53.67026577 -35.14510751 59.80522836 -30.36328125 64.3125 C-24.11225943 68.69488896 -17.95043034 70.63092263 -10.36328125 69.3125 C-3.49453854 67.23476644 1.2301566 62.72139706 4.63671875 56.48046875 C9.0438228 46.75517665 9.18550389 34.5931018 5.68359375 24.56640625 C3.0347695 18.86352718 -0.50547498 13.93309754 -6.36328125 11.3125 C-14.90040391 8.7676072 -23.13082247 9.76904613 -30.05078125 15.5625 Z " fill="#FFFFFF" transform="translate(947.36328125,1349.6875)"/>
<path d="M0 0 C8.65999723 7.42829675 15.64838862 15.97835488 19 27 C17.56656 27.53190541 16.12804633 28.05015258 14.6875 28.5625 C13.48673828 28.99755859 13.48673828 28.99755859 12.26171875 29.44140625 C10 30 10 30 7 29 C5.45703125 26.55859375 5.45703125 26.55859375 3.8125 23.4375 C-3.44784054 10.70930963 -15.0147062 2.66490963 -29.03515625 -1.52734375 C-46.57813638 -5.74742446 -65.23805407 -3.94902647 -80.89453125 4.9921875 C-94.8985383 14.04635055 -104.24796561 27.41648752 -108.3125 43.5625 C-111.39858477 62.22881857 -108.71655398 81.17462326 -98 97 C-87.51860889 111.11205854 -73.8040199 118.72710979 -56.44140625 121.5859375 C-39.3225908 123.64563607 -22.12574743 120.30165436 -8.20703125 109.80078125 C6.02618191 98.18748697 10.77935374 83.76517007 13 66 C-7.46 66 -27.92 66 -49 66 C-49 62.7 -49 59.4 -49 56 C-24.91 56 -0.82 56 24 56 C24 78.50123545 21.07085997 97.35506036 5.1875 114.3125 C-11.24157066 129.7789298 -31.34150018 133.87405909 -53.140625 133.34375 C-72.00507631 132.49345277 -88.84419369 124.44815757 -102 111 C-118.13961703 92.67935365 -122.41704075 72.61037233 -121.22314453 48.84472656 C-119.7165896 29.63862364 -109.16169578 12.57328961 -94.82421875 0.16796875 C-67.47212442 -20.82845221 -27.54768111 -20.72134957 0 0 Z " fill="#FFFFFF" transform="translate(1170,1561)"/>
<path d="M0 0 C31.14711801 -4.11014519 31.14711801 -4.11014519 40.24365234 2.27783203 C45.66314026 8.32346381 49.11203499 15.38354616 52.45507812 22.71777344 C54.53298957 27.13235015 57.12013211 31.05038675 59.875 35.0625 C60.74001679 36.393022 61.60077954 37.72632044 62.45703125 39.0625 C64.22017484 41.79499685 65.9890054 44.52370194 67.76171875 47.25 C70.06484758 50.79330597 72.35943976 54.34197296 74.64599609 57.89599609 C75.55353531 59.30623284 76.46273372 60.71540312 77.37353516 62.12353516 C78.71516885 64.20246737 80.04631093 66.28777672 81.375 68.375 C81.7676001 68.98029541 82.1602002 69.58559082 82.56469727 70.20922852 C88.93628749 80.29384767 91.74890617 88.52457475 91.48828125 100.54296875 C91.48120651 101.79257889 91.47413177 103.04218903 91.46684265 104.32966614 C91.44377623 107.61312891 91.39905428 110.89530597 91.34332275 114.17834473 C91.29169179 117.54386585 91.26896002 120.90958262 91.24414062 124.27539062 C91.19357252 130.85126702 91.09567395 137.42401029 91 144 C80.77 144 70.54 144 60 144 C60.10183594 140.51308594 60.20367188 137.02617188 60.30859375 133.43359375 C61.75845326 99.85221291 61.75845326 99.85221291 46.17773438 71.5234375 C42.15186103 66.85847933 39.03456931 61.5738652 35.75 56.375 C34.33334088 54.2005701 32.91270547 52.02872607 31.48828125 49.859375 C30.75580423 48.74037698 30.02354863 47.621234 29.29150391 46.50195312 C28.73296722 45.64839233 28.73296722 45.64839233 28.16314697 44.77758789 C26.95030453 42.92405253 25.73760312 41.07042493 24.52490234 39.21679688 C22.40792556 35.98116918 20.29029182 32.74597222 18.17224121 29.51104736 C17.36502803 28.27804219 16.55797381 27.04493293 15.75109863 25.81170654 C14.61450905 24.07466699 13.47721363 22.33809119 12.33984375 20.6015625 C11.62296387 19.50618164 10.90608398 18.41080078 10.16748047 17.28222656 C8.67952764 15.02901212 7.18228977 12.78654077 5.66455078 10.55371094 C4.93091309 9.4712207 4.19727539 8.38873047 3.44140625 7.2734375 C2.77955322 6.30583496 2.1177002 5.33823242 1.43579102 4.34130859 C0 2 0 2 0 0 Z " fill="#FFFFFF" transform="translate(694,1548)"/>
<path d="M0 0 C3.96580088 3.48730957 6.94840611 7.39343804 7.91015625 12.6796875 C8.01795476 14.47598548 8.07581526 16.27557884 8.09960938 18.07495117 C8.1163269 19.15254196 8.13304443 20.23013275 8.15026855 21.34037781 C8.16384399 22.49777969 8.17741943 23.65518158 8.19140625 24.84765625 C8.20981567 26.03821121 8.2282251 27.22876617 8.24719238 28.45539856 C8.32595148 33.55440209 8.39383697 38.6535363 8.46240234 43.75268555 C8.51396301 47.47191236 8.57125866 51.19101963 8.62890625 54.91015625 C8.64248169 56.07363083 8.65605713 57.23710541 8.67004395 58.43583679 C8.68676147 59.5039711 8.703479 60.57210541 8.72070312 61.67260742 C8.7332312 62.61762619 8.74575928 63.56264496 8.75866699 64.53630066 C8.67354296 66.66157257 8.67354296 66.66157257 9.91015625 67.6796875 C12.23833589 68.04729481 14.57199475 68.38210331 16.91015625 68.6796875 C16.91015625 72.9696875 16.91015625 77.2596875 16.91015625 81.6796875 C10.09311643 84.05083179 3.48674458 84.87188361 -3.46484375 82.5546875 C-6.57007468 80.33666541 -8.0547831 77.87516571 -10.08984375 74.6796875 C-10.99605469 75.16179687 -11.90226562 75.64390625 -12.8359375 76.140625 C-24.86554481 82.43199039 -36.41437946 86.26203173 -50.22265625 82.921875 C-59.0021777 79.88372997 -64.93873718 76.14728338 -69.08984375 67.6796875 C-71.30942695 60.81154326 -70.77038501 53.17394156 -68.13671875 46.53125 C-64.11695245 39.42166333 -58.55680831 36.47031947 -51.08984375 33.6796875 C-45.66825867 32.42702965 -40.23265429 31.67542339 -34.71484375 30.9921875 C-32.57339668 30.71500494 -30.43325498 30.43146739 -28.29428101 30.13578796 C-26.37070704 29.87151556 -24.44443149 29.62712633 -22.51806641 29.3840332 C-17.39776892 28.33204216 -14.02680229 27.08512531 -11.08984375 22.6796875 C-10.64148207 18.64443236 -10.66670754 16.41203863 -12.71484375 12.8671875 C-17.86713257 8.12165832 -24.15016909 8.23414947 -30.82421875 8.37890625 C-35.51912725 8.81133203 -39.39285518 9.64401369 -43.08984375 12.6796875 C-44.97203981 15.65130682 -45.9492156 18.30739559 -47.08984375 21.6796875 C-53.35984375 21.6796875 -59.62984375 21.6796875 -66.08984375 21.6796875 C-64.91044971 11.06514116 -62.52296322 5.95517297 -54.40234375 -0.78125 C-39.4326121 -10.7442133 -14.52142682 -10.59458 0 0 Z M-14.5390625 39.59375 C-19.75912686 41.19020533 -25.07226099 41.72047636 -30.48242188 42.359375 C-37.74466878 43.33283689 -44.58792329 44.93367724 -49.65234375 50.4921875 C-51.36245578 54.28417504 -51.6885555 56.5635442 -51.08984375 60.6796875 C-48.79893435 64.87968807 -45.96906976 66.69794577 -41.42578125 68.17578125 C-33.15156849 69.96068668 -24.47229964 69.14478786 -17.26953125 64.5078125 C-14.34727617 62.22083026 -12.46947154 60.09673696 -11.08984375 56.6796875 C-10.81806294 54.5581289 -10.81806294 54.5581289 -10.89453125 52.3515625 C-10.90419922 51.15273437 -10.90419922 51.15273437 -10.9140625 49.9296875 C-10.93082031 49.1046875 -10.94757813 48.2796875 -10.96484375 47.4296875 C-10.97386719 46.58921875 -10.98289062 45.74875 -10.9921875 44.8828125 C-11.01568558 42.81498146 -11.05155467 40.74729755 -11.08984375 38.6796875 C-12.36940147 38.62141263 -12.36940147 38.62141263 -14.5390625 39.59375 Z " fill="#FFFFFF" transform="translate(1425.08984375,1352.3203125)"/>
<path d="M0 0 C3.96580088 3.48730957 6.94840611 7.39343804 7.91015625 12.6796875 C8.01795476 14.47598548 8.07581526 16.27557884 8.09960938 18.07495117 C8.1163269 19.15254196 8.13304443 20.23013275 8.15026855 21.34037781 C8.16384399 22.49777969 8.17741943 23.65518158 8.19140625 24.84765625 C8.20981567 26.03821121 8.2282251 27.22876617 8.24719238 28.45539856 C8.32595148 33.55440209 8.39383697 38.6535363 8.46240234 43.75268555 C8.51396301 47.47191236 8.57125866 51.19101963 8.62890625 54.91015625 C8.64248169 56.07363083 8.65605713 57.23710541 8.67004395 58.43583679 C8.68676147 59.5039711 8.703479 60.57210541 8.72070312 61.67260742 C8.7332312 62.61762619 8.74575928 63.56264496 8.75866699 64.53630066 C8.67354296 66.66157257 8.67354296 66.66157257 9.91015625 67.6796875 C12.23833589 68.04729481 14.57199475 68.38210331 16.91015625 68.6796875 C16.91015625 72.9696875 16.91015625 77.2596875 16.91015625 81.6796875 C10.09311643 84.05083179 3.48674458 84.87188361 -3.46484375 82.5546875 C-6.57007468 80.33666541 -8.0547831 77.87516571 -10.08984375 74.6796875 C-10.99605469 75.16179687 -11.90226562 75.64390625 -12.8359375 76.140625 C-24.86554481 82.43199039 -36.41437946 86.26203173 -50.22265625 82.921875 C-59.0021777 79.88372997 -64.93873718 76.14728338 -69.08984375 67.6796875 C-71.30942695 60.81154326 -70.77038501 53.17394156 -68.13671875 46.53125 C-64.11695245 39.42166333 -58.55680831 36.47031947 -51.08984375 33.6796875 C-45.66825867 32.42702965 -40.23265429 31.67542339 -34.71484375 30.9921875 C-32.57339668 30.71500494 -30.43325498 30.43146739 -28.29428101 30.13578796 C-26.37070704 29.87151556 -24.44443149 29.62712633 -22.51806641 29.3840332 C-17.39776892 28.33204216 -14.02680229 27.08512531 -11.08984375 22.6796875 C-10.64148207 18.64443236 -10.66670754 16.41203863 -12.71484375 12.8671875 C-17.86713257 8.12165832 -24.15016909 8.23414947 -30.82421875 8.37890625 C-35.51912725 8.81133203 -39.39285518 9.64401369 -43.08984375 12.6796875 C-44.97203981 15.65130682 -45.9492156 18.30739559 -47.08984375 21.6796875 C-53.35984375 21.6796875 -59.62984375 21.6796875 -66.08984375 21.6796875 C-64.91044971 11.06514116 -62.52296322 5.95517297 -54.40234375 -0.78125 C-39.4326121 -10.7442133 -14.52142682 -10.59458 0 0 Z M-14.5390625 39.59375 C-19.75912686 41.19020533 -25.07226099 41.72047636 -30.48242188 42.359375 C-37.74466878 43.33283689 -44.58792329 44.93367724 -49.65234375 50.4921875 C-51.36245578 54.28417504 -51.6885555 56.5635442 -51.08984375 60.6796875 C-48.79893435 64.87968807 -45.96906976 66.69794577 -41.42578125 68.17578125 C-33.15156849 69.96068668 -24.47229964 69.14478786 -17.26953125 64.5078125 C-14.34727617 62.22083026 -12.46947154 60.09673696 -11.08984375 56.6796875 C-10.81806294 54.5581289 -10.81806294 54.5581289 -10.89453125 52.3515625 C-10.90419922 51.15273437 -10.90419922 51.15273437 -10.9140625 49.9296875 C-10.93082031 49.1046875 -10.94757813 48.2796875 -10.96484375 47.4296875 C-10.97386719 46.58921875 -10.98289062 45.74875 -10.9921875 44.8828125 C-11.01568558 42.81498146 -11.05155467 40.74729755 -11.08984375 38.6796875 C-12.36940147 38.62141263 -12.36940147 38.62141263 -14.5390625 39.59375 Z " fill="#FFFFFF" transform="translate(1218.08984375,1352.3203125)"/>
<path d="M0 0 C7.78998888 6.15185204 16.2745841 13.5768892 20 23 C20 23.99 20 24.98 20 26 C13.00530134 28.60267857 13.00530134 28.60267857 9 28 C7.33203125 25.875 7.33203125 25.875 5.8125 23 C-0.49374363 12.44890851 -9.35432299 7.36219779 -21 4 C-33.32307281 1.04836579 -46.59224694 0.86643706 -58 7 C-64.56755293 11.65316163 -69.20413059 16.04686403 -71 24 C-71.73623271 29.88986171 -70.51719738 34.28791912 -67 39 C-62.43050967 43.36036033 -56.77212675 45.61820628 -50.92578125 47.78125 C-49.88992638 48.16707748 -49.88992638 48.16707748 -48.83314514 48.56069946 C-43.34035108 50.57474553 -37.79446614 52.39129483 -32.21484375 54.1484375 C-31.37609711 54.41310822 -30.53735046 54.67777893 -29.67318726 54.95046997 C-26.23232629 56.03316967 -22.79079653 57.11296595 -19.3425293 58.171875 C-3.37210089 63.09188239 12.58923629 68.09581459 22.140625 82.75 C25.78142155 90.16398571 25.07441215 101.07561099 23.34375 109.0078125 C18.77949753 121.55950679 9.15695579 129.19043939 -2.5625 134.8125 C-11.2686411 138.79206216 -19.85107335 139.34118838 -29.3125 139.3125 C-30.36373047 139.32861328 -31.41496094 139.34472656 -32.49804688 139.36132812 C-50.40901055 139.37233671 -65.09157905 132.2640068 -78 120 C-83.74356014 113.94226222 -88.63186478 107.10083414 -91 99 C-90.67 97.68 -90.34 96.36 -90 95 C-85.05 94.01 -85.05 94.01 -80 93 C-79.62230469 93.88300781 -79.24460937 94.76601562 -78.85546875 95.67578125 C-72.30493777 110.25678556 -62.70569675 118.95921678 -48 125 C-34.72297238 129.70964781 -19.01076355 129.75272267 -6.13671875 123.640625 C-1.4774547 120.962411 2.44774565 118.07464469 6 114 C6.721875 113.195625 7.44375 112.39125 8.1875 111.5625 C12.0422479 106.112684 12.73844343 100.50966287 12 94 C9.14725509 85.44176528 4.609014 81.27744414 -3 77 C-5.56787142 75.87190181 -8.05306016 74.86742797 -10.6875 73.9375 C-11.45642578 73.657854 -12.22535156 73.37820801 -13.01757812 73.09008789 C-18.99687482 70.95820778 -25.03323032 69.01657417 -31.08203125 67.09375 C-32.29604866 66.70625328 -32.29604866 66.70625328 -33.53459167 66.31092834 C-37.63113448 65.0042353 -41.73090696 63.71035255 -45.83862305 62.43920898 C-57.95825995 58.63680522 -72.08177175 54.16981295 -79.34375 42.91796875 C-83.73991651 34.45534822 -84.42431759 25.59531628 -81.5625 16.4375 C-77.12340358 5.59496833 -68.43638102 -1.22605188 -58 -6 C-40.59177189 -12.97325303 -15.62416692 -10.45148008 0 0 Z " fill="#FFFFFF" transform="translate(1625,1555)"/>
<path d="M0 0 C3.63 0 7.26 0 11 0 C11 21.45 11 42.9 11 65 C41.03 65 71.06 65 102 65 C102 43.55 102 22.1 102 0 C105.96 0 109.92 0 114 0 C114 47.52 114 95.04 114 144 C110.04 144 106.08 144 102 144 C102 121.56 102 99.12 102 76 C71.97 76 41.94 76 11 76 C11 98.44 11 120.88 11 144 C7.37 144 3.74 144 0 144 C0 96.48 0 48.96 0 0 Z " fill="#FFFFFF" transform="translate(1229,1548)"/>
<path d="M0 0 C9.42635034 7.82269738 14.34068014 16.53613049 17.6875 28.25 C17.6875 33.53 17.6875 38.81 17.6875 44.25 C-3.4325 44.25 -24.5525 44.25 -46.3125 44.25 C-43.33558785 57.50901205 -43.33558785 57.50901205 -34.3125 66.25 C-27.84146878 69.33144344 -19.80186344 69.30247481 -13 67.1875 C-7.1686027 64.67293443 -4.06181066 59.74862132 -1.3125 54.25 C4.6275 54.25 10.5675 54.25 16.6875 54.25 C13.90684069 65.37263724 8.6485417 73.38046946 -1.25390625 79.4375 C-12.42536719 85.38395279 -25.04861746 86.04039485 -37.1875 82.625 C-46.9355053 79.21618833 -54.71708635 73.83160443 -59.71875 64.67578125 C-65.98966175 51.60530531 -67.79623104 36.76435396 -63.28515625 22.76953125 C-58.56699703 10.5477935 -52.28748846 2.04784509 -40.3125 -3.75 C-27.2811664 -9.43913246 -11.68751645 -8.21042422 0 0 Z M-40.125 14.9375 C-44.17447358 19.95773779 -46.3125 24.69418415 -46.3125 31.25 C-31.4625 31.25 -16.6125 31.25 -1.3125 31.25 C-2.37083078 22.78335376 -3.95973707 17.97265415 -10.3125 12.375 C-19.76013782 5.68292321 -32.08134131 6.37218144 -40.125 14.9375 Z " fill="#FFFFFF" transform="translate(786.3125,1351.75)"/>
<path d="M0 0 C9.42635034 7.82269738 14.34068014 16.53613049 17.6875 28.25 C17.6875 33.53 17.6875 38.81 17.6875 44.25 C-3.4325 44.25 -24.5525 44.25 -46.3125 44.25 C-43.33558785 57.50901205 -43.33558785 57.50901205 -34.3125 66.25 C-27.84146878 69.33144344 -19.80186344 69.30247481 -13 67.1875 C-7.1686027 64.67293443 -4.06181066 59.74862132 -1.3125 54.25 C4.6275 54.25 10.5675 54.25 16.6875 54.25 C13.90684069 65.37263724 8.6485417 73.38046946 -1.25390625 79.4375 C-12.42536719 85.38395279 -25.04861746 86.04039485 -37.1875 82.625 C-46.9355053 79.21618833 -54.71708635 73.83160443 -59.71875 64.67578125 C-65.98966175 51.60530531 -67.79623104 36.76435396 -63.28515625 22.76953125 C-58.56699703 10.5477935 -52.28748846 2.04784509 -40.3125 -3.75 C-27.2811664 -9.43913246 -11.68751645 -8.21042422 0 0 Z M-40.125 14.9375 C-44.17447358 19.95773779 -46.3125 24.69418415 -46.3125 31.25 C-31.4625 31.25 -16.6125 31.25 -1.3125 31.25 C-2.37083078 22.78335376 -3.95973707 17.97265415 -10.3125 12.375 C-19.76013782 5.68292321 -32.08134131 6.37218144 -40.125 14.9375 Z " fill="#FFFFFF" transform="translate(579.3125,1351.75)"/>
<path d="M0 0 C9.42635034 7.82269738 14.34068014 16.53613049 17.6875 28.25 C17.6875 33.53 17.6875 38.81 17.6875 44.25 C-3.4325 44.25 -24.5525 44.25 -46.3125 44.25 C-43.33558785 57.50901205 -43.33558785 57.50901205 -34.3125 66.25 C-27.84146878 69.33144344 -19.80186344 69.30247481 -13 67.1875 C-7.1686027 64.67293443 -4.06181066 59.74862132 -1.3125 54.25 C4.6275 54.25 10.5675 54.25 16.6875 54.25 C13.90684069 65.37263724 8.6485417 73.38046946 -1.25390625 79.4375 C-12.42536719 85.38395279 -25.04861746 86.04039485 -37.1875 82.625 C-46.9355053 79.21618833 -54.71708635 73.83160443 -59.71875 64.67578125 C-65.98966175 51.60530531 -67.79623104 36.76435396 -63.28515625 22.76953125 C-58.56699703 10.5477935 -52.28748846 2.04784509 -40.3125 -3.75 C-27.2811664 -9.43913246 -11.68751645 -8.21042422 0 0 Z M-40.125 14.9375 C-44.17447358 19.95773779 -46.3125 24.69418415 -46.3125 31.25 C-31.4625 31.25 -16.6125 31.25 -1.3125 31.25 C-2.37083078 22.78335376 -3.95973707 17.97265415 -10.3125 12.375 C-19.76013782 5.68292321 -32.08134131 6.37218144 -40.125 14.9375 Z " fill="#FFFFFF" transform="translate(172.3125,1351.75)"/>
<path d="M0 0 C6.93 0 13.86 0 21 0 C23.90764685 7.11760101 26.5493253 14.28145067 29.0390625 21.5546875 C29.79166598 23.7369794 30.54427017 25.91927106 31.296875 28.1015625 C32.46719394 31.50496049 33.63656848 34.9086816 34.80566406 38.3125 C35.94370927 41.62317698 37.0850227 44.93271418 38.2265625 48.2421875 C38.75003769 49.77188675 38.75003769 49.77188675 39.28408813 51.33248901 C39.61137909 52.28092682 39.93867004 53.22936462 40.27587891 54.20654297 C40.56137604 55.03797821 40.84687317 55.86941345 41.14102173 56.7260437 C41.96419582 58.90521629 42.91837971 60.93868041 44 63 C46.34833818 56.0991349 48.69609185 49.19807113 51.04345703 42.296875 C51.84052589 39.95373125 52.63772398 37.61063146 53.43505859 35.26757812 C54.58726201 31.88162867 55.73898615 28.49551651 56.890625 25.109375 C57.24183411 24.07762146 57.59304321 23.04586792 57.95489502 21.98284912 C58.29494568 20.9827179 58.63499634 19.98258667 58.98535156 18.95214844 C59.31571411 17.98112183 59.64607666 17.01009521 59.9864502 16.00964355 C60.7035427 13.88030286 61.41047961 11.74752946 62.11022949 9.61242676 C62.46798462 8.52119507 62.82573975 7.42996338 63.19433594 6.30566406 C63.51690369 5.31278381 63.83947144 4.31990356 64.17181396 3.29693604 C65 1 65 1 66 0 C67.4887186 -0.08669432 68.981445 -0.10703494 70.47265625 -0.09765625 C71.28226807 -0.09515869 72.09187988 -0.09266113 72.92602539 -0.09008789 C73.96106201 -0.08098389 74.99609863 -0.07187988 76.0625 -0.0625 C77.83520291 -0.05101153 79.60790819 -0.0398853 81.38061523 -0.02905273 C82.92041016 -0.01936849 84.46020508 -0.00968424 86 0 C81.11692794 14.10176084 76.06122311 28.13204972 70.875 42.125 C70.5092688 43.11270386 70.1435376 44.10040771 69.76672363 45.11804199 C65.07252688 57.78987767 60.36423244 70.45678577 55.56890869 83.09075928 C55.031544 84.50764462 54.49580353 85.92514725 53.96185303 87.34332275 C43.84285049 114.18623703 43.84285049 114.18623703 32 120 C28.10036614 121.35909791 24.07833604 121.14716487 20 121.125 C18.93265625 121.13080078 18.93265625 121.13080078 17.84375 121.13671875 C14.32072441 121.13014594 11.44426598 120.86106649 8 120 C8 114.72 8 109.44 8 104 C13.22460938 104.14648438 13.22460938 104.14648438 18.44921875 104.29296875 C22.32796973 103.97293979 24.04440018 103.50368912 27 101 C28.71448804 98.06954163 28.71448804 98.06954163 29.875 94.6875 C30.30554687 93.57761719 30.73609375 92.46773437 31.1796875 91.32421875 C32.94914758 84.15369244 29.50426197 77.67043771 26.9140625 71.05859375 C26.50072662 69.9898703 26.08739075 68.92114685 25.66152954 67.82003784 C24.32110775 64.35719535 22.97299396 60.89740094 21.625 57.4375 C20.70864275 55.07276818 19.79295343 52.70777743 18.87792969 50.3425293 C17.07642075 45.68628173 15.27285808 41.03083901 13.46777344 36.37597656 C10.36454134 28.36639933 7.29680316 20.34368764 4.25 12.3125 C3.80350098 11.14066162 3.35700195 9.96882324 2.89697266 8.76147461 C2.50300293 7.7225708 2.1090332 6.68366699 1.703125 5.61328125 C1.20280762 4.29517456 1.20280762 4.29517456 0.69238281 2.95043945 C0 1 0 1 0 0 Z " fill="#FFFFFF" transform="translate(1501,1347)"/>
<path d="M0 0 C6.93 0 13.86 0 21 0 C23.90764685 7.11760101 26.5493253 14.28145067 29.0390625 21.5546875 C29.79166598 23.7369794 30.54427017 25.91927106 31.296875 28.1015625 C32.46719394 31.50496049 33.63656848 34.9086816 34.80566406 38.3125 C35.94370927 41.62317698 37.0850227 44.93271418 38.2265625 48.2421875 C38.75003769 49.77188675 38.75003769 49.77188675 39.28408813 51.33248901 C39.61137909 52.28092682 39.93867004 53.22936462 40.27587891 54.20654297 C40.56137604 55.03797821 40.84687317 55.86941345 41.14102173 56.7260437 C41.96419582 58.90521629 42.91837971 60.93868041 44 63 C46.34833818 56.0991349 48.69609185 49.19807113 51.04345703 42.296875 C51.84052589 39.95373125 52.63772398 37.61063146 53.43505859 35.26757812 C54.58726201 31.88162867 55.73898615 28.49551651 56.890625 25.109375 C57.24183411 24.07762146 57.59304321 23.04586792 57.95489502 21.98284912 C58.29494568 20.9827179 58.63499634 19.98258667 58.98535156 18.95214844 C59.31571411 17.98112183 59.64607666 17.01009521 59.9864502 16.00964355 C60.7035427 13.88030286 61.41047961 11.74752946 62.11022949 9.61242676 C62.46798462 8.52119507 62.82573975 7.42996338 63.19433594 6.30566406 C63.51690369 5.31278381 63.83947144 4.31990356 64.17181396 3.29693604 C65 1 65 1 66 0 C67.4887186 -0.08669432 68.981445 -0.10703494 70.47265625 -0.09765625 C71.28226807 -0.09515869 72.09187988 -0.09266113 72.92602539 -0.09008789 C73.96106201 -0.08098389 74.99609863 -0.07187988 76.0625 -0.0625 C77.83520291 -0.05101153 79.60790819 -0.0398853 81.38061523 -0.02905273 C82.92041016 -0.01936849 84.46020508 -0.00968424 86 0 C81.11692794 14.10176084 76.06122311 28.13204972 70.875 42.125 C70.5092688 43.11270386 70.1435376 44.10040771 69.76672363 45.11804199 C65.07252688 57.78987767 60.36423244 70.45678577 55.56890869 83.09075928 C55.031544 84.50764462 54.49580353 85.92514725 53.96185303 87.34332275 C43.84285049 114.18623703 43.84285049 114.18623703 32 120 C28.10036614 121.35909791 24.07833604 121.14716487 20 121.125 C18.93265625 121.13080078 18.93265625 121.13080078 17.84375 121.13671875 C14.32072441 121.13014594 11.44426598 120.86106649 8 120 C8 114.72 8 109.44 8 104 C13.22460938 104.14648438 13.22460938 104.14648438 18.44921875 104.29296875 C22.32796973 103.97293979 24.04440018 103.50368912 27 101 C28.71448804 98.06954163 28.71448804 98.06954163 29.875 94.6875 C30.30554688 93.57761719 30.73609375 92.46773437 31.1796875 91.32421875 C32.94914758 84.15369244 29.50426197 77.67043771 26.9140625 71.05859375 C26.50072662 69.9898703 26.08739075 68.92114685 25.66152954 67.82003784 C24.32110775 64.35719535 22.97299396 60.89740094 21.625 57.4375 C20.70864275 55.07276818 19.79295343 52.70777743 18.87792969 50.3425293 C17.07642075 45.68628173 15.27285808 41.03083901 13.46777344 36.37597656 C10.36454134 28.36639933 7.29680316 20.34368764 4.25 12.3125 C3.80350098 11.14066162 3.35700195 9.96882324 2.89697266 8.76147461 C2.50300293 7.7225708 2.1090332 6.68366699 1.703125 5.61328125 C1.20280762 4.29517456 1.20280762 4.29517456 0.69238281 2.95043945 C0 1 0 1 0 0 Z " fill="#FFFFFF" transform="translate(993,1347)"/>
<path d="M0 0 C6.5100758 5.9170788 8.03865807 11.08997693 9.97265625 19.79296875 C3.37265625 19.79296875 -3.22734375 19.79296875 -10.02734375 19.79296875 C-11.01734375 17.81296875 -12.00734375 15.83296875 -13.02734375 13.79296875 C-15.4675338 10.53938202 -18.09935344 9.68882619 -22.02734375 8.79296875 C-29.42549692 8.18946258 -35.275269 8.67662656 -42.02734375 11.79296875 C-42.97005377 15.04936534 -42.97005377 15.04936534 -43.02734375 18.79296875 C-39.18129341 23.92103587 -35.10488723 25.01753085 -29.15234375 26.35546875 C-27.45049828 26.7720433 -25.74867565 27.18871115 -24.046875 27.60546875 C-23.20205566 27.80527344 -22.35723633 28.00507812 -21.48681641 28.2109375 C3.64531836 34.15842701 3.64531836 34.15842701 10.97265625 44.79296875 C13.79057568 50.59732106 13.88163263 56.85849433 12.4375 63.109375 C9.65642253 71.11827024 4.43622653 75.98821574 -3.02734375 79.79296875 C-17.14724893 85.12897943 -32.67144068 85.92559001 -47.02734375 80.79296875 C-54.76635607 76.94677287 -60.9546635 71.39690946 -63.90234375 63.16796875 C-64.98695961 59.71465157 -65.02734375 57.61775553 -65.02734375 53.79296875 C-58.75734375 53.79296875 -52.48734375 53.79296875 -46.02734375 53.79296875 C-45.44984375 55.21609375 -44.87234375 56.63921875 -44.27734375 58.10546875 C-42.07891337 63.00965959 -40.34029069 64.90870373 -35.2890625 66.83984375 C-27.15624241 69.2163804 -17.61230117 68.74664902 -10.02734375 64.79296875 C-7.39714164 62.48157901 -7.1046013 61.31169804 -6.58984375 57.85546875 C-7.17615078 53.75131956 -7.85648725 52.53143573 -11.02734375 49.79296875 C-17.28583651 46.88049077 -24.06779172 45.53757208 -30.76757812 44.03979492 C-54.20754452 38.75833752 -54.20754452 38.75833752 -61.0390625 28.72265625 C-64.16601449 22.6170662 -63.83161089 15.37508958 -61.83984375 8.98046875 C-57.3368628 1.06143329 -50.13520825 -3.53177665 -41.52734375 -6.01953125 C-27.75458755 -9.06275389 -11.70937577 -8.60670996 0 0 Z " fill="#FFFFFF" transform="translate(1881.02734375,1352.20703125)"/>
<path d="M0 0 C6.5100758 5.9170788 8.03865807 11.08997693 9.97265625 19.79296875 C3.37265625 19.79296875 -3.22734375 19.79296875 -10.02734375 19.79296875 C-11.01734375 17.81296875 -12.00734375 15.83296875 -13.02734375 13.79296875 C-15.4675338 10.53938202 -18.09935344 9.68882619 -22.02734375 8.79296875 C-29.42549692 8.18946258 -35.275269 8.67662656 -42.02734375 11.79296875 C-42.97005377 15.04936534 -42.97005377 15.04936534 -43.02734375 18.79296875 C-39.18129341 23.92103587 -35.10488723 25.01753085 -29.15234375 26.35546875 C-27.45049828 26.7720433 -25.74867565 27.18871115 -24.046875 27.60546875 C-23.20205566 27.80527344 -22.35723633 28.00507812 -21.48681641 28.2109375 C3.64531836 34.15842701 3.64531836 34.15842701 10.97265625 44.79296875 C13.79057568 50.59732106 13.88163263 56.85849433 12.4375 63.109375 C9.65642253 71.11827024 4.43622653 75.98821574 -3.02734375 79.79296875 C-17.14724893 85.12897943 -32.67144068 85.92559001 -47.02734375 80.79296875 C-54.76635607 76.94677287 -60.9546635 71.39690946 -63.90234375 63.16796875 C-64.98695961 59.71465157 -65.02734375 57.61775553 -65.02734375 53.79296875 C-58.75734375 53.79296875 -52.48734375 53.79296875 -46.02734375 53.79296875 C-45.44984375 55.21609375 -44.87234375 56.63921875 -44.27734375 58.10546875 C-42.07891337 63.00965959 -40.34029069 64.90870373 -35.2890625 66.83984375 C-27.15624241 69.2163804 -17.61230117 68.74664902 -10.02734375 64.79296875 C-7.39714164 62.48157901 -7.1046013 61.31169804 -6.58984375 57.85546875 C-7.17615078 53.75131956 -7.85648725 52.53143573 -11.02734375 49.79296875 C-17.28583651 46.88049077 -24.06779172 45.53757208 -30.76757812 44.03979492 C-54.20754452 38.75833752 -54.20754452 38.75833752 -61.0390625 28.72265625 C-64.16601449 22.6170662 -63.83161089 15.37508958 -61.83984375 8.98046875 C-57.3368628 1.06143329 -50.13520825 -3.53177665 -41.52734375 -6.01953125 C-27.75458755 -9.06275389 -11.70937577 -8.60670996 0 0 Z " fill="#FFFFFF" transform="translate(428.02734375,1352.20703125)"/>
<path d="M0 0 C5.99154381 4.21176788 9.62076287 8.81905901 11.34075928 16.06518555 C12.24580547 21.95094436 11.98212177 27.95335291 11.9375 33.89453125 C11.93376383 35.36283169 11.93091972 36.83113464 11.92892456 38.29943848 C11.92133557 42.13976074 11.90172853 45.97992862 11.8795166 49.82019043 C11.85895543 53.7485953 11.84990101 57.67702543 11.83984375 61.60546875 C11.8184775 69.29565102 11.78333476 76.98567472 11.7421875 84.67578125 C5.4721875 84.67578125 -0.7978125 84.67578125 -7.2578125 84.67578125 C-7.27239502 82.90009766 -7.28697754 81.12441406 -7.30200195 79.29492188 C-7.35381597 73.40351899 -7.41914519 67.51234763 -7.49352741 61.62119293 C-7.53810216 58.05217279 -7.57738574 54.48326339 -7.60424805 50.9140625 C-7.63041101 47.46438263 -7.6709026 44.01513197 -7.72099876 40.5657196 C-7.74560566 38.62061311 -7.75567857 36.6753401 -7.76545715 34.73010254 C-7.8208009 24.13997894 -7.8208009 24.13997894 -12.7323761 15.04260254 C-16.79559548 11.40187734 -21.46303945 11.24249646 -26.69140625 11.359375 C-31.97690337 12.01101163 -35.79559994 14.25308795 -39.5703125 17.92578125 C-44.37755029 25.75979839 -44.72090553 32.6998157 -44.76953125 41.70703125 C-44.78748245 42.93869019 -44.80543365 44.17034912 -44.82392883 45.43933105 C-44.87786711 49.35144689 -44.91187576 53.26344183 -44.9453125 57.17578125 C-44.97688143 59.83728518 -45.01299081 62.49870355 -45.04882812 65.16015625 C-45.13358464 71.66527716 -45.20047511 78.17036322 -45.2578125 84.67578125 C-51.5278125 84.67578125 -57.7978125 84.67578125 -64.2578125 84.67578125 C-64.2578125 55.96578125 -64.2578125 27.25578125 -64.2578125 -2.32421875 C-58.3178125 -2.32421875 -52.3778125 -2.32421875 -46.2578125 -2.32421875 C-45.9278125 1.63578125 -45.5978125 5.59578125 -45.2578125 9.67578125 C-44.3090625 8.45890625 -43.3603125 7.24203125 -42.3828125 5.98828125 C-31.96592267 -5.97735188 -13.5135707 -7.92577936 0 0 Z " fill="#FFFFFF" transform="translate(1319.2578125,1349.32421875)"/>
<path d="M0 0 C5.99154381 4.21176788 9.62076287 8.81905901 11.34075928 16.06518555 C12.24580547 21.95094436 11.98212177 27.95335291 11.9375 33.89453125 C11.93376383 35.36283169 11.93091972 36.83113464 11.92892456 38.29943848 C11.92133557 42.13976074 11.90172853 45.97992862 11.8795166 49.82019043 C11.85895543 53.7485953 11.84990101 57.67702543 11.83984375 61.60546875 C11.8184775 69.29565102 11.78333476 76.98567472 11.7421875 84.67578125 C5.4721875 84.67578125 -0.7978125 84.67578125 -7.2578125 84.67578125 C-7.27239502 82.90009766 -7.28697754 81.12441406 -7.30200195 79.29492188 C-7.35381597 73.40351899 -7.41914519 67.51234763 -7.49352741 61.62119293 C-7.53810216 58.05217279 -7.57738574 54.48326339 -7.60424805 50.9140625 C-7.63041101 47.46438263 -7.6709026 44.01513197 -7.72099876 40.5657196 C-7.74560566 38.62061311 -7.75567857 36.6753401 -7.76545715 34.73010254 C-7.8208009 24.13997894 -7.8208009 24.13997894 -12.7323761 15.04260254 C-16.79559548 11.40187734 -21.46303945 11.24249646 -26.69140625 11.359375 C-31.97690337 12.01101163 -35.79559994 14.25308795 -39.5703125 17.92578125 C-44.37755029 25.75979839 -44.72090553 32.6998157 -44.76953125 41.70703125 C-44.78748245 42.93869019 -44.80543365 44.17034912 -44.82392883 45.43933105 C-44.87786711 49.35144689 -44.91187576 53.26344183 -44.9453125 57.17578125 C-44.97688143 59.83728518 -45.01299081 62.49870355 -45.04882812 65.16015625 C-45.13358464 71.66527716 -45.20047511 78.17036322 -45.2578125 84.67578125 C-51.5278125 84.67578125 -57.7978125 84.67578125 -64.2578125 84.67578125 C-64.2578125 55.96578125 -64.2578125 27.25578125 -64.2578125 -2.32421875 C-58.3178125 -2.32421875 -52.3778125 -2.32421875 -46.2578125 -2.32421875 C-45.9278125 1.63578125 -45.5978125 5.59578125 -45.2578125 9.67578125 C-44.3090625 8.45890625 -43.3603125 7.24203125 -42.3828125 5.98828125 C-31.96592267 -5.97735188 -13.5135707 -7.92577936 0 0 Z " fill="#FFFFFF" transform="translate(684.2578125,1349.32421875)"/>
<path d="M0 0 C6.45989079 5.12991327 10.63135758 11.69167425 12.2578125 19.79296875 C12.2578125 21.11296875 12.2578125 22.43296875 12.2578125 23.79296875 C5.9878125 23.79296875 -0.2821875 23.79296875 -6.7421875 23.79296875 C-7.4434375 22.22546875 -8.1446875 20.65796875 -8.8671875 19.04296875 C-11.12859756 14.51374237 -13.08563927 12.07170512 -17.7421875 9.79296875 C-24.30142936 7.79667775 -31.61248673 7.97087024 -37.92578125 10.6875 C-44.21868845 14.51737685 -47.58033742 21.08869464 -49.30078125 28.0546875 C-51.04784061 38.89263982 -50.22991634 49.51505684 -44.8671875 59.16796875 C-40.93141394 64.02980667 -36.8068549 67.32883718 -30.484375 68.05078125 C-24.3461575 68.33235086 -19.77257921 67.39733424 -14.7421875 63.79296875 C-9.65948099 58.9361603 -9.15852192 56.04197201 -6.7421875 48.79296875 C-0.4721875 48.79296875 5.7978125 48.79296875 12.2578125 48.79296875 C10.49447126 60.0142312 6.51487578 69.92657619 -2.515625 77.2265625 C-12.92157486 84.38330761 -25.57942092 85.20082021 -37.79296875 83.32421875 C-48.04169943 80.88887681 -56.80126403 75.58311062 -62.7421875 66.79296875 C-70.43103839 52.96939641 -71.79965897 38.12238172 -68.1171875 22.85546875 C-66.25989509 16.65797724 -63.91075882 11.73498583 -59.7421875 6.79296875 C-59.21753906 6.15875 -58.69289063 5.52453125 -58.15234375 4.87109375 C-43.74954048 -10.98893432 -17.24558855 -11.22904078 0 0 Z " fill="#FFFFFF" transform="translate(1784.7421875,1352.20703125)"/>
<path d="M0 0 C40.26 0 80.52 0 122 0 C122 3.63 122 7.26 122 11 C103.85 11 85.7 11 67 11 C67 54.89 67 98.78 67 144 C63.37 144 59.74 144 56 144 C56 100.11 56 56.22 56 11 C37.52 11 19.04 11 0 11 C0 7.37 0 3.74 0 0 Z " fill="#FFFFFF" transform="translate(1377,1548)"/>
<path d="M0 0 C6.27 0 12.54 0 19 0 C19 8.58 19 17.16 19 26 C24.61 26 30.22 26 36 26 C36 30.62 36 35.24 36 40 C30.39 40 24.78 40 19 40 C19.04408518 47.6176149 19.11385001 55.23439562 19.20751953 62.8515625 C19.23576107 65.44329188 19.25695965 68.03510789 19.27099609 70.62695312 C19.29238062 74.35071271 19.33901086 78.07342701 19.390625 81.796875 C19.39185364 82.95741394 19.39308228 84.11795288 19.39434814 85.31365967 C19.41406677 86.39447815 19.4337854 87.47529663 19.45410156 88.58886719 C19.46298401 89.53928894 19.47186646 90.48971069 19.48101807 91.46893311 C20.15379014 94.75003215 21.39163276 95.95842815 24 98 C27.04440135 98.48195275 27.04440135 98.48195275 30.25 98.25 C32.1475 98.1675 34.045 98.085 36 98 C36 102.95 36 107.9 36 113 C27.30695343 115.17326164 14.98405841 115.69858305 7 111 C2.8103731 107.57778001 0.89162216 103.24168106 0 98 C-0.26573948 93.54109675 -0.23271026 89.09432614 -0.1953125 84.62890625 C-0.1924826 83.35144028 -0.18965271 82.0739743 -0.18673706 80.75779724 C-0.17747007 77.38266422 -0.15954066 74.00780796 -0.1373291 70.63275146 C-0.11676863 67.18032201 -0.10771366 63.72786382 -0.09765625 60.27539062 C-0.07564911 53.51684153 -0.04114643 46.75845858 0 40 C-4.62 40 -9.24 40 -14 40 C-14 35.38 -14 30.76 -14 26 C-9.38 26 -4.76 26 0 26 C0 17.42 0 8.84 0 0 Z " fill="#FFFFFF" transform="translate(1612,1321)"/>
<path d="M0 0 C3.96 0 7.92 0 12 0 C12 43.89 12 87.78 12 133 C39.39 133 66.78 133 95 133 C95 136.63 95 140.26 95 144 C63.65 144 32.3 144 0 144 C0 96.48 0 48.96 0 0 Z " fill="#FFFFFF" transform="translate(873,1548)"/>
<path d="M0 0 C6.27 0 12.54 0 19 0 C19 39.6 19 79.2 19 120 C12.73 120 6.46 120 0 120 C0 80.4 0 40.8 0 0 Z " fill="#FFFFFF" transform="translate(1463,1314)"/>
<path d="M0 0 C0 6.27 0 12.54 0 19 C-1.98 18.938125 -3.96 18.87625 -6 18.8125 C-12.4857132 18.84066814 -17.71304564 19.0957732 -22.7109375 23.51171875 C-28.63098958 29.93714113 -31.04506082 37.29686438 -31.20532227 45.97387695 C-31.22526749 46.93449539 -31.24521271 47.89511383 -31.26576233 48.88484192 C-31.29083107 50.42104439 -31.29083107 50.42104439 -31.31640625 51.98828125 C-31.33718735 53.04661667 -31.35796844 54.10495209 -31.37937927 55.19535828 C-31.44463103 58.56767441 -31.50364637 61.94006674 -31.5625 65.3125 C-31.6057084 67.60222134 -31.64932343 69.89193505 -31.69335938 72.18164062 C-31.80028746 77.78768282 -31.90162344 83.39380148 -32 89 C-38.27 89 -44.54 89 -51 89 C-51 60.29 -51 31.58 -51 2 C-45.06 2 -39.12 2 -33 2 C-32.67 6.29 -32.34 10.58 -32 15 C-30.659375 13.4325 -29.31875 11.865 -27.9375 10.25 C-19.33705884 0.68944669 -12.46384097 -0.13547653 0 0 Z " fill="#FFFFFF" transform="translate(878,1345)"/>
<path d="M0 0 C6.27 0 12.54 0 19 0 C19 28.71 19 57.42 19 87 C12.73 87 6.46 87 0 87 C0 58.29 0 29.58 0 0 Z " fill="#FFFFFF" transform="translate(1671,1347)"/>
<path d="M0 0 C3.63 0 7.26 0 11 0 C11 47.52 11 95.04 11 144 C7.37 144 3.74 144 0 144 C0 96.48 0 48.96 0 0 Z " fill="#FFFFFF" transform="translate(1003,1548)"/>
<path d="M0 0 C6.27 0 12.54 0 19 0 C19 5.94 19 11.88 19 18 C12.73 18 6.46 18 0 18 C0 12.06 0 6.12 0 0 Z " fill="#FFFFFF" transform="translate(1671,1314)"/>
</svg>
