<?xml version="1.0" encoding="UTF-8" standalone="no"?>
<!-- Created with Inkscape (http://www.inkscape.org/) -->

<svg
   version="1.1"
   id="svg4755"
   xml:space="preserve"
   width="682.66669"
   height="682.66669"
   viewBox="0 0 682.66669 682.66669"
   xmlns="http://www.w3.org/2000/svg"
   xmlns:svg="http://www.w3.org/2000/svg"><defs
     id="defs4759"><clipPath
       clipPathUnits="userSpaceOnUse"
       id="clipPath4777"><path
         d="M 0,512 H 512 V 0 H 0 Z"
         id="path4775" /></clipPath></defs><g
     id="g4761"
     transform="matrix(1.3333333,0,0,-1.3333333,0,682.66667)"><g
       id="g4763"
       transform="translate(353.5229,109.0078)"><path
         d="M 0,0 14.964,-53.5"
         style="fill:none;stroke:#000000;stroke-width:15;stroke-linecap:round;stroke-linejoin:round;stroke-miterlimit:10;stroke-dasharray:none;stroke-opacity:1"
         id="path4765" /></g><g
       id="g4767"
       transform="translate(205.3691,55.6367)"><path
         d="M 0,0 14.893,53.246"
         style="fill:none;stroke:#000000;stroke-width:15;stroke-linecap:round;stroke-linejoin:round;stroke-miterlimit:10;stroke-dasharray:none;stroke-opacity:1"
         id="path4769" /></g><g
       id="g4771"><g
         id="g4773"
         clip-path="url(#clipPath4777)"><g
           id="g4779"
           transform="translate(210.2627,22.9922)"><path
             d="m 0,0 h -46.001 c -8.662,0 -15.683,7.021 -15.683,15.684 0,8.661 7.021,15.682 15.683,15.682 h 247.087 c 8.662,0 15.683,-7.021 15.683,-15.682 C 216.769,7.021 209.748,0 201.086,0 H 32.687"
             style="fill:none;stroke:#000000;stroke-width:15;stroke-linecap:round;stroke-linejoin:round;stroke-miterlimit:10;stroke-dasharray:none;stroke-opacity:1"
             id="path4781" /></g><g
           id="g4783"
           transform="translate(347.9507,440.9316)"><path
             d="M 0,0 V -32.806"
             style="fill:none;stroke:#000000;stroke-width:15;stroke-linecap:round;stroke-linejoin:round;stroke-miterlimit:10;stroke-dasharray:none;stroke-opacity:1"
             id="path4785" /></g><g
           id="g4787"
           transform="translate(226.606,407.5557)"><path
             d="M 0,0 V 33.661"
             style="fill:none;stroke:#000000;stroke-width:15;stroke-linecap:round;stroke-linejoin:round;stroke-miterlimit:10;stroke-dasharray:none;stroke-opacity:1"
             id="path4789" /></g><g
           id="g4791"
           transform="translate(366.7246,442.6602)"><path
             d="m 0,0 h -157.839 c -8.046,0 -14.568,6.522 -14.568,14.567 0,17.552 14.228,31.781 31.78,31.781 h 123.415 c 17.551,0 31.78,-14.229 31.78,-31.781 C 14.568,6.522 8.045,0 0,0 Z"
             style="fill:none;stroke:#000000;stroke-width:15;stroke-linecap:round;stroke-linejoin:round;stroke-miterlimit:10;stroke-dasharray:none;stroke-opacity:1"
             id="path4793" /></g><g
           id="g4795"
           transform="translate(469.1655,325.3643)"><path
             d="m 0,0 h 10.334 c 13.808,0 25,-11.192 25,-25 v -83.607 c 0,-13.807 -11.192,-25 -25,-25 H -0.271"
             style="fill:none;stroke:#000000;stroke-width:15;stroke-linecap:round;stroke-linejoin:round;stroke-miterlimit:10;stroke-dasharray:none;stroke-opacity:1"
             id="path4797" /></g><g
           id="g4799"
           transform="translate(71.231,241.9414)"><path
             d="m 0,0 h -47.111 c -9.179,0 -16.62,7.44 -16.62,16.619 0,9.179 7.441,16.62 16.62,16.62 h 46.835"
             style="fill:none;stroke:#000000;stroke-width:15;stroke-linecap:round;stroke-linejoin:round;stroke-miterlimit:10;stroke-dasharray:none;stroke-opacity:1"
             id="path4801" /></g><g
           id="g4803"
           transform="translate(107.0825,220.0527)"><path
             d="m 0,0 h -24.552 c -5.523,0 -10,4.477 -10,10 v 57.017 c 0,5.522 4.477,10 10,10 h 24.276"
             style="fill:none;stroke:#000000;stroke-width:15;stroke-linecap:round;stroke-linejoin:round;stroke-miterlimit:10;stroke-dasharray:none;stroke-opacity:1"
             id="path4805" /></g><g
           id="g4807"
           transform="translate(467.3359,249.792)"><path
             d="m 0,0 v -104.12 c 0,-19.33 -15.67,-35 -35,-35 h -279.062 c -24.853,0 -45,20.146 -45,45 v 205.778 c 0,24.853 20.147,45 45,45 H -35 c 19.33,0 35,-15.67 35,-35 V 32.687"
             style="fill:none;stroke:#000000;stroke-width:15;stroke-linecap:round;stroke-linejoin:round;stroke-miterlimit:10;stroke-dasharray:none;stroke-opacity:1"
             id="path4809" /></g><g
           id="g4811"
           transform="translate(170.0522,332.5059)"><path
             d="M 0,0 H 205.388"
             style="fill:none;stroke:#000000;stroke-width:15;stroke-linecap:round;stroke-linejoin:round;stroke-miterlimit:10;stroke-dasharray:none;stroke-opacity:1"
             id="path4813" /></g><g
           id="g4815"
           transform="translate(210.2627,258.5605)"><path
             d="M 0,0 H -40.21"
             style="fill:none;stroke:#000000;stroke-width:15;stroke-linecap:round;stroke-linejoin:round;stroke-miterlimit:10;stroke-dasharray:none;stroke-opacity:1"
             id="path4817" /></g><g
           id="g4819"
           transform="translate(375.4404,258.5605)"><path
             d="M 0,0 H -132.491"
             style="fill:none;stroke:#000000;stroke-width:15;stroke-linecap:round;stroke-linejoin:round;stroke-miterlimit:10;stroke-dasharray:none;stroke-opacity:1"
             id="path4821" /></g><g
           id="g4823"
           transform="translate(375.4404,184.6162)"><path
             d="M 0,0 H -205.388"
             style="fill:none;stroke:#000000;stroke-width:15;stroke-linecap:round;stroke-linejoin:round;stroke-miterlimit:10;stroke-dasharray:none;stroke-opacity:1"
             id="path4825" /></g><g
           id="g4827"
           transform="translate(375.4404,112.6719)"><path
             d="M 0,0 V 291.778"
             style="fill:none;stroke:#000000;stroke-width:15;stroke-linecap:round;stroke-linejoin:round;stroke-miterlimit:10;stroke-dasharray:none;stroke-opacity:1"
             id="path4829" /></g><g
           id="g4831"
           transform="translate(422.6719,344.0146)"><path
             d="M 0,0 V 0 C -4.142,0 -7.5,3.358 -7.5,7.5 -7.5,11.643 -4.142,15 0,15 4.142,15 7.5,11.643 7.5,7.5 7.5,3.358 4.142,0 0,0"
             style="fill:#000000;fill-opacity:1;fill-rule:nonzero;stroke:none"
             id="path4833" /></g><g
           id="g4835"
           transform="translate(422.6719,153.1338)"><path
             d="M 0,0 V 0 C -4.142,0 -7.5,3.357 -7.5,7.5 -7.5,11.642 -4.142,15 0,15 4.142,15 7.5,11.642 7.5,7.5 7.5,3.357 4.142,0 0,0"
             style="fill:#000000;fill-opacity:1;fill-rule:nonzero;stroke:none"
             id="path4837" /></g><g
           id="g4839"
           transform="translate(170.0522,112.6719)"><path
             d="M 0,0 V 291.778"
             style="fill:none;stroke:#000000;stroke-width:15;stroke-linecap:round;stroke-linejoin:round;stroke-miterlimit:10;stroke-dasharray:none;stroke-opacity:1"
             id="path4841" /></g></g></g></g></svg>
